<svg width="375" height="416" viewBox="0 0 375 416" fill="none" xmlns="http://www.w3.org/2000/svg">
<g opacity="0.4" clip-path="url(#clip0_105_719)">
<path d="M-348.262 138.437L-348.455 137.604C-315.567 129.959 -305.47 107.234 -294.78 83.1752C-290.339 73.1835 -285.748 62.8509 -279.389 53.7531C-267.333 36.5097 -250.721 27.7069 -232.62 28.9504C-206.668 30.7434 -180.413 37.1883 -155.023 43.4204C-150.65 44.493 -146.309 45.5588 -142.007 46.5912C-123.841 50.9499 -105.363 55.7974 -87.4937 60.4852C-43.2198 72.1007 2.5607 84.1111 48.7787 90.1193C61.5627 91.7824 74.7424 90.5423 87.488 89.345C94.9463 88.6441 102.659 87.9185 110.229 87.7784C128.454 87.4434 146.94 88.4065 164.821 89.3407L169.814 89.6013C213.418 91.8559 252.651 93.0208 291.241 84.4085C333.569 74.9629 374.376 59.022 413.84 43.605C429.355 37.5456 445.396 31.2793 461.209 25.5403C465.052 24.1447 468.913 22.7149 472.791 21.2791C515.443 5.48688 559.548 -10.8438 603.725 9.51996C614.929 14.6854 624.829 20.4586 634.396 26.0429C656.531 38.9575 677.43 51.155 709.456 52.3857L709.422 53.2403C677.191 52.002 656.19 39.7514 633.969 26.7813C624.411 21.2081 614.537 15.4444 603.367 10.296C559.514 -9.91986 515.576 6.34923 473.087 22.0807C469.207 23.5165 465.343 24.9472 461.498 26.3428C445.696 32.0793 429.659 38.3438 414.15 44.4024C374.656 59.8297 333.818 75.7825 291.426 85.2426C252.733 93.8789 213.437 92.7131 169.77 90.4543L164.776 90.1945C146.91 89.2603 128.435 88.2971 110.245 88.633C102.706 88.7723 95.0103 89.4962 87.5674 90.1953C74.7756 91.3978 61.5499 92.6422 48.6687 90.9671C2.39783 84.9521 -43.41 72.9348 -87.7094 61.3125C-105.575 56.6256 -124.048 51.7789 -142.205 47.4219C-146.509 46.3895 -150.852 45.3237 -155.225 44.2494C-180.581 38.0267 -206.799 31.5921 -232.679 29.8033C-256.688 28.1436 -271.812 44.4041 -278.691 54.2445C-285.003 63.2739 -289.577 73.5681 -294 83.5222C-304.306 106.714 -314.961 130.695 -348.262 138.437Z" fill="#D5E0FE" fill-opacity="0.3"/>
<path d="M-348.175 153.862L-348.729 151.358C-317.407 144.395 -304.788 124.991 -291.428 104.448C-285.738 95.6992 -279.855 86.6519 -272.355 78.326C-262.459 67.3386 -246.058 54.3608 -224.135 54.9171C-203.32 55.4453 -181.992 58.2511 -161.366 60.9655C-153.582 61.9894 -145.533 63.0483 -137.708 63.9559C-118.378 66.1985 -98.7372 68.589 -79.7423 70.9008C-38.8629 75.8757 3.40891 81.0215 45.1308 84.9973C56.2274 86.0537 67.3035 85.5349 78.0147 85.0307C87.3241 84.5948 96.949 84.141 106.681 84.7025C126.711 85.8605 146.601 89.6389 165.834 93.2917L170.276 94.1344C209.091 101.477 247.488 107.359 290.452 98.8008C331.316 90.6611 371.575 78.1508 410.509 66.0524C424.937 61.5697 439.856 56.9333 454.555 52.5993C459.13 51.2507 463.696 49.8713 468.257 48.4927C509.793 35.9439 552.744 22.9653 597.739 36.0653C610.12 39.6685 621.656 43.9101 632.818 48.0133C657.528 57.0991 680.866 65.6797 710.479 66.6301L710.402 69.1923C680.38 68.23 656.846 59.5792 631.931 50.42C620.812 46.333 609.318 42.1051 597.031 38.5275C552.761 25.6429 512.072 37.9353 468.997 50.9473C464.429 52.3267 459.858 53.7087 455.276 55.059C440.595 59.3878 425.685 64.0209 411.267 68.5018C372.269 80.6198 331.945 93.1498 290.95 101.316C247.573 109.958 207.317 103.751 169.802 96.6539L165.358 95.8104C146.204 92.173 126.398 88.4108 106.533 87.263C96.9371 86.7101 87.3778 87.1587 78.1341 87.592C67.3342 88.0997 56.1668 88.6253 44.8886 87.5493C3.13351 83.5701 -39.1554 78.4234 -80.051 73.4468C-99.0416 71.1341 -118.678 68.7436 -138.002 66.5027C-145.846 65.5934 -153.906 64.5328 -161.699 63.5081C-182.259 60.8023 -203.519 58.005 -224.199 57.4794C-245.148 56.9401 -260.92 69.4564 -270.456 80.0429C-277.821 88.2202 -283.649 97.1821 -289.285 105.848C-302.938 126.843 -315.834 146.672 -348.175 153.862Z" fill="#D5E0FE" fill-opacity="0.2"/>
<path d="M-348.464 167.653L-348.622 166.813C-317.938 161.027 -301.783 144.821 -284.68 127.664C-277.491 120.453 -270.059 112.998 -261.279 106.017C-233.92 84.2607 -196.612 84.5811 -160.527 84.8854C-149.702 84.9786 -138.509 85.0734 -127.923 84.5418C-111.691 83.7256 -95.1662 82.7197 -79.1855 81.748C-38.3718 79.2644 3.82672 76.7021 45.3738 77.0184C51.3169 77.062 57.3376 76.9192 63.1587 76.7791C77.4187 76.4347 92.1639 76.08 106.661 78.5431C126.793 81.9668 146.078 88.8023 164.728 95.4121C166.614 96.0804 168.498 96.7479 170.38 97.4111C209.771 111.296 246.04 122.205 291.045 115.011C330.659 108.681 370.463 100.309 408.957 92.2123C422.564 89.3509 436.635 86.3913 450.486 83.5658C453.957 82.8582 457.411 82.1471 460.85 81.4386C504.973 72.3486 546.647 63.7636 592.564 69.2804C605.055 70.7794 617.47 72.6605 629.476 74.4792C657.102 78.6636 683.193 82.6155 711.442 82.6214V83.4761C683.134 83.4701 655.789 79.3294 629.356 75.3253C617.351 73.5066 604.936 71.6273 592.461 70.1282C546.681 64.6294 505.074 73.1998 461.022 82.2762C457.581 82.9847 454.127 83.6957 450.656 84.4042C436.807 87.228 422.738 90.1868 409.132 93.049C370.628 101.148 330.814 109.521 291.18 115.856C245.979 123.078 209.6 112.142 170.097 98.2179C168.215 97.5547 166.331 96.8864 164.444 96.218C145.828 89.6193 126.578 82.7975 106.518 79.3866C92.1016 76.9338 77.3982 77.2902 63.1792 77.6329C57.3512 77.7739 51.3211 77.9157 45.3669 77.873C3.854 77.5525 -38.3334 80.1182 -79.1335 82.6001C-95.1168 83.5727 -111.644 84.5786 -127.881 85.3948C-138.491 85.9289 -149.697 85.8332 -160.534 85.7401C-196.471 85.4384 -233.626 85.1179 -260.75 106.686C-269.49 113.637 -276.905 121.075 -284.077 128.268C-301.275 145.521 -317.521 161.818 -348.464 167.653Z" fill="#D5E0FE" fill-opacity="0.3"/>
<path d="M-348.573 182.309L-348.693 181.463C-318.762 177.21 -298.406 164.511 -276.856 151.068C-268.2 145.667 -259.248 140.083 -249.412 134.886C-232.754 126.083 -215.01 121.039 -195.168 119.465C-167.599 117.278 -141.175 111.084 -116.728 104.717C-101.363 100.713 -85.7127 96.1573 -70.577 91.7525C-32.9019 80.7865 6.0564 69.4479 45.7958 64.9712C93.8342 59.5596 127.829 75.2467 170.608 97.9983C213.58 120.852 245.199 135.471 291.412 130.619C326.464 126.941 362.166 123.653 396.695 120.472C412.681 119 429.212 117.477 445.464 115.935C525.365 108.357 610.197 102.593 712.431 97.7966L712.465 98.6495C610.248 103.446 525.433 109.209 445.544 116.786C429.291 118.328 412.759 119.85 396.772 121.323C362.247 124.503 326.547 127.791 291.5 131.469C241.578 136.713 205.296 117.413 170.209 98.7529C127.566 76.074 93.6867 60.4365 45.8905 65.8216C6.22357 70.2889 -32.6982 81.6172 -70.3391 92.573C-85.4808 96.9804 -101.137 101.537 -116.514 105.543C-140.999 111.921 -167.466 118.126 -195.1 120.317C-214.825 121.881 -232.461 126.895 -249.014 135.642C-258.824 140.825 -267.762 146.401 -276.405 151.792C-298.035 165.286 -318.465 178.031 -348.573 182.309Z" fill="#D5E0FE" fill-opacity="0.3"/>
<path d="M-348.681 196.996L-348.76 196.145C-318.935 193.364 -294.005 184.455 -267.612 175.023C-257.726 171.49 -247.504 167.838 -236.96 164.513C-221.606 159.671 -206.59 157.505 -190.692 155.211C-186.84 154.656 -182.858 154.081 -178.89 153.468C-152.213 149.348 -127.122 136.467 -104.984 125.102C-90.9197 117.882 -76.6222 109.67 -62.7953 101.73C-28.4559 82.0087 7.0517 61.6168 46.2565 51.5866C91.5203 40.0061 128.889 67.2668 161.859 91.3183C164.892 93.531 167.878 95.7087 170.816 97.8154L172.807 99.2426C209.605 125.641 241.402 148.458 291.756 146.347C327.442 144.871 363.791 146.349 398.943 147.782C412.452 148.334 426.422 148.903 440.138 149.293C492.409 150.786 536.313 149.818 580.695 140.237C593.988 137.367 607.272 134.141 620.113 131.023C650.11 123.739 681.13 116.209 713.412 113.004L713.497 113.855C681.267 117.053 650.281 124.577 620.318 131.853C607.468 134.974 594.184 138.199 580.874 141.072C536.407 150.671 492.448 151.641 440.113 150.149C426.393 149.757 412.42 149.187 398.907 148.636C363.773 147.204 327.444 145.721 291.79 147.202C241.138 149.306 209.238 126.427 172.31 99.9383L170.32 98.5102C167.38 96.4026 164.393 94.2233 161.357 92.0089C128.539 68.0685 91.3472 40.9343 46.4671 52.4147C7.37488 62.4158 -28.0816 82.7778 -62.3716 102.471C-76.2069 110.416 -90.513 118.633 -104.596 125.862C-126.791 137.257 -151.947 150.171 -178.76 154.313C-182.732 154.926 -186.718 155.502 -190.571 156.058C-206.433 158.345 -221.416 160.507 -236.705 165.327C-247.232 168.648 -257.447 172.299 -267.325 175.828C-293.771 185.279 -318.749 194.205 -348.681 196.996Z" fill="#D5E0FE" fill-opacity="0.1"/>
<path d="M-348.788 211.712L-348.83 210.859C-317.877 209.31 -287.468 204.216 -258.059 199.291C-247.186 197.47 -235.941 195.587 -224.766 193.896C-216.28 192.612 -207.287 191.991 -198.59 191.391C-186.628 190.564 -174.26 189.711 -162.954 187.123C-137.944 181.401 -116.542 164.11 -97.6576 148.854C-96.2388 147.708 -94.837 146.576 -93.454 145.465C-80.739 135.253 -68.4828 124.056 -55.5069 112.203C-24.5968 83.9675 7.36539 54.7702 46.7006 38.7404C89.3843 21.3449 132.04 61.4432 160.266 87.9792C164.091 91.5739 167.703 94.9702 171.016 97.9444C173.074 99.7939 175.132 101.652 177.193 103.512C193.94 118.639 211.257 134.281 231.46 146.502C251.87 158.848 269.153 161.564 292.108 162.082C327.212 162.876 362.302 169.338 396.237 175.585C408.925 177.921 422.046 180.337 434.913 182.405C505.029 193.676 540.389 188.312 574.709 176.006C589.161 170.824 603.265 164.955 616.89 159.278C648.72 146.029 678.777 133.514 714.401 128.244L714.529 129.09C679.007 134.343 648.993 146.84 617.223 160.068C603.58 165.747 589.468 171.621 574.999 176.811C528.528 193.473 486.896 191.628 434.778 183.249C421.901 181.179 408.776 178.762 396.083 176.426C362.18 170.184 327.124 163.729 292.089 162.937C268.99 162.416 251.592 159.678 231.019 147.233C210.748 134.97 193.399 119.301 176.621 104.147C174.562 102.287 172.506 100.43 170.447 98.5811C167.127 95.6001 163.511 92.2012 159.683 88.6023C131.615 62.2176 89.1967 22.3474 47.0212 39.5318C7.82751 55.5043 -24.0776 84.6495 -54.933 112.835C-67.9192 124.697 -80.1848 135.904 -92.9211 146.132C-94.3032 147.242 -95.7042 148.373 -97.1221 149.52C-116.078 164.833 -137.562 182.19 -162.764 187.956C-174.135 190.558 -186.538 191.415 -198.532 192.243C-207.211 192.842 -216.187 193.462 -224.638 194.74C-235.808 196.431 -247.048 198.313 -257.919 200.134C-287.351 205.064 -317.785 210.161 -348.788 211.712Z" fill="#D5E0FE" fill-opacity="0.3"/>
<path d="M504.58 229.376C503.536 229.376 502.493 229.357 501.443 229.32C476.152 228.424 450.538 220.899 429.958 214.852C417.812 211.283 405.411 207.173 393.418 203.199C360.896 192.42 327.267 181.275 292.441 178.559C268.399 176.682 251.553 172.885 231.415 158.212C210.931 143.289 193.866 124.984 177.363 107.281C175.11 104.864 172.861 102.453 170.608 100.053C167.74 97 164.45 93.2661 160.64 88.9415C147.44 73.9604 129.362 53.4437 109.4 39.401C85.6002 22.6593 65.346 19.2732 47.4809 29.0529C23.1475 42.3743 4.33936 64.0482 -12.2535 83.1709L-15.1833 86.5451C-25.3769 98.2615 -35.3625 110.4 -45.0207 122.139C-56.9964 136.695 -69.3797 151.747 -82.272 166.136C-84.0472 168.118 -85.8754 170.193 -87.7572 172.332C-103.597 190.326 -123.31 212.721 -148.27 219.91C-161.782 223.801 -178.437 223.406 -194.541 223.023C-201.303 222.862 -207.69 222.711 -213.638 222.884C-221.015 223.098 -228.389 223.316 -235.764 223.534C-272.835 224.628 -311.168 225.76 -348.89 226.455L-348.906 225.601C-311.188 224.906 -272.858 223.774 -235.79 222.68C-228.414 222.462 -221.038 222.244 -213.663 222.029C-207.693 221.856 -201.294 222.009 -194.521 222.168C-178.478 222.549 -161.892 222.942 -148.505 219.088C-123.785 211.968 -104.163 189.678 -88.3967 171.766C-86.5123 169.626 -84.6833 167.548 -82.9064 165.565C-70.026 151.189 -57.6487 136.145 -45.6789 121.595C-36.0173 109.852 -26.0266 97.7085 -15.8262 85.9827L-12.8973 82.6103C3.74338 63.4337 22.6043 41.6974 47.0716 28.3034C64.9981 18.4895 86.1323 21.9876 109.889 38.7011C129.934 52.8027 148.05 73.363 161.279 88.3758C165.084 92.6943 168.371 96.424 171.228 99.4674C173.482 101.867 175.732 104.281 177.986 106.699C194.461 124.371 211.497 142.645 231.916 157.521C251.891 172.074 268.621 175.843 292.508 177.707C327.436 180.431 361.115 191.593 393.686 202.387C405.672 206.359 418.066 210.467 430.198 214.032C450.733 220.065 476.289 227.574 501.473 228.465C525.476 229.306 548.259 220.144 569.311 210.107C584.523 202.852 599.138 194.561 613.275 186.542C644.312 168.936 676.398 150.73 715.399 143.513L715.552 144.352C676.696 151.545 646.094 168.906 613.693 187.286C599.547 195.312 584.915 203.611 569.678 210.877C549.444 220.524 527.607 229.374 504.58 229.376Z" fill="#D5E0FE" fill-opacity="0.3"/>
<path d="M500.553 263.959C498.991 263.96 497.422 263.91 495.843 263.81C470.333 262.183 444.749 251.513 426.069 243.722C414.622 238.947 402.883 233.397 391.532 228.031C360.251 213.244 327.905 197.953 292.89 193.948C267.856 191.086 251.539 186.643 231.837 170.308C211.164 153.169 194.326 132.643 178.042 112.795C175.633 109.857 173.228 106.927 170.817 104.013C168.415 101.111 165.429 97.23 161.97 92.7362C149.686 76.7723 131.122 52.6473 110.634 35.9013C86.2758 15.9914 65.1271 11.6019 47.7762 22.8636C23.8929 38.3618 7.33673 63.003 -7.27118 84.7427C-8.65164 86.7982 -10.0193 88.8322 -11.3776 90.8381C-20.7783 104.717 -29.8916 119.035 -38.7056 132.882C-49.7962 150.309 -61.2655 168.328 -73.4228 185.654C-75.1938 188.177 -77.0245 190.865 -78.9617 193.713C-93.2166 214.654 -110.957 240.717 -136.437 248.838C-151.279 253.567 -171.676 251.665 -189.671 249.986C-194.969 249.492 -199.973 249.026 -204.536 248.758C-218.565 247.938 -232.79 246.927 -246.547 245.947C-280.038 243.566 -314.688 241.108 -348.989 241.224L-348.992 240.37C-314.65 240.259 -279.994 242.712 -246.486 245.095C-232.733 246.074 -218.51 247.085 -204.486 247.905C-199.909 248.174 -194.898 248.641 -189.592 249.136C-171.677 250.808 -151.372 252.701 -136.695 248.023C-111.496 239.992 -93.8476 214.065 -79.6669 193.232C-77.7271 190.382 -75.8947 187.689 -74.1203 185.161C-61.974 167.853 -50.5099 149.841 -39.4244 132.423C-30.6078 118.571 -21.4902 104.247 -12.0828 90.3569C-10.7253 88.3536 -9.35852 86.3195 -7.97803 84.2658C6.67505 62.4569 23.2824 37.7397 47.3131 22.1457C65.0111 10.6635 86.4966 15.0684 111.173 35.2381C131.737 52.0473 150.337 76.2193 162.646 92.214C166.099 96.7018 169.081 100.578 171.473 103.467C173.885 106.382 176.29 109.314 178.701 112.251C194.958 132.07 211.771 152.562 232.38 169.649C252.033 185.944 267.583 190.194 292.987 193.099C328.141 197.12 360.552 212.441 391.896 227.259C403.239 232.621 414.967 238.166 426.397 242.932C445.022 250.701 470.53 261.339 495.898 262.957C521.316 264.583 544.874 252.545 564.955 241.141C580.593 232.263 595.54 221.929 609.992 211.935C641.695 190.016 674.48 167.35 716.405 158.804L716.576 159.642C674.821 168.152 642.112 190.768 610.479 212.639C596.009 222.643 581.044 232.987 565.372 241.885C546.426 252.644 524.393 263.959 500.553 263.959Z" fill="#D5E0FE" fill-opacity="0.2"/>
<path d="M497.297 292.615C495.611 292.615 493.922 292.555 492.219 292.432C467.927 290.68 444.963 279.709 423.525 268.622C412.738 263.044 402.081 256.715 390.799 250.014C360.395 231.958 328.956 213.288 293.48 208.991C290.279 208.603 287.094 208.404 284.012 208.211C276.794 207.759 269.976 207.333 263.011 204.686C250.746 200.023 241.11 191.911 232.294 184.001C211.441 165.294 194.804 143.12 178.716 121.676C176.172 118.287 173.635 114.906 171.089 111.547C168.963 108.741 166.195 104.793 162.99 100.22C150.927 83.0095 132.698 57.0008 111.938 38.3199C87.1094 15.9743 65.5438 10.7703 47.839 22.8456C23.6471 39.3489 8.57709 66.4413 -4.71857 90.3458C-6.1485 92.9157 -7.55539 95.4463 -8.95035 97.9197C-17.2698 112.674 -25.2815 127.857 -33.0297 142.54C-43.8202 162.989 -54.9781 184.135 -67.1483 204.465C-68.8775 207.355 -70.6826 210.508 -72.5926 213.846C-85.0082 235.534 -102.012 265.238 -128.418 273.405C-144.846 278.487 -168.11 275.35 -186.803 272.83C-190.828 272.287 -194.629 271.774 -198.161 271.367C-212.739 269.686 -227.451 267.615 -241.681 265.613C-276.591 260.7 -312.686 255.616 -349.082 256.019L-349.092 255.164C-312.643 254.746 -276.503 259.849 -241.561 264.767C-227.339 266.768 -212.631 268.838 -198.064 270.517C-194.523 270.926 -190.718 271.438 -186.69 271.982C-168.079 274.491 -144.917 277.616 -128.67 272.589C-102.584 264.521 -85.6767 234.986 -73.3327 213.42C-71.4193 210.079 -69.6125 206.922 -67.879 204.027C-55.7217 183.714 -44.5688 162.58 -33.7834 142.14C-26.0327 127.452 -18.0184 112.264 -9.69299 97.4992C-8.29889 95.0267 -6.892 92.4978 -5.46381 89.9296C7.87875 65.943 23.0008 38.7558 47.3598 22.1397C65.4295 9.81482 87.349 15.0435 112.508 37.6841C133.34 56.4299 151.603 82.4873 163.687 99.7298C166.888 104.295 169.651 108.237 171.767 111.029C174.315 114.39 176.854 117.773 179.397 121.163C195.461 142.573 212.072 164.714 232.863 183.364C241.62 191.221 251.184 199.277 263.314 203.887C270.157 206.487 276.912 206.91 284.065 207.358C287.159 207.551 290.358 207.752 293.581 208.143C329.236 212.461 360.753 231.178 391.234 249.28C402.505 255.973 413.151 262.296 423.916 267.863C445.276 278.909 468.148 289.839 492.281 291.58C517.438 293.391 540.713 281.183 562.106 267.716C577.855 257.804 592.956 245.936 607.553 234.459C639.844 209.07 673.243 182.817 717.428 174.119L717.599 174.958C673.61 183.616 640.296 209.805 608.082 235.132C593.459 246.622 578.35 258.504 562.558 268.441C542.486 281.077 520.753 292.613 497.297 292.615Z" fill="#D5E0FE" fill-opacity="0.3"/>
<path d="M495.549 314.331C494.088 314.331 492.618 314.292 491.135 314.211C465.296 312.809 442.064 300.494 422.316 289.062C412.088 283.142 401.86 276.221 391.033 268.896C361.043 248.604 330.032 227.622 294.176 224.42C290.757 224.115 287.351 224.078 284.057 224.043C277.29 223.972 270.292 223.898 263.283 221.421C250.886 217.041 241.137 208.634 232.214 200.399C211.114 180.923 194.663 157.8 178.752 135.437C176.084 131.687 173.423 127.948 170.75 124.236C168.617 121.276 165.864 117.12 162.678 112.308C139.527 77.35 91.3522 4.60831 48.0699 31.6494C23.4398 47.0356 8.75693 76.4765 -3.03973 100.132C-4.57025 103.202 -6.06415 106.197 -7.53586 109.08C-15.4844 124.645 -23.0604 140.666 -30.3865 156.159C-40.772 178.12 -51.5104 200.829 -63.5075 222.668C-65.0073 225.397 -66.5762 228.383 -68.2364 231.543C-80.288 254.48 -96.7939 285.892 -125.175 293.076C-144.594 297.994 -169.633 294.319 -189.751 291.371C-191.723 291.081 -193.651 290.798 -195.525 290.531C-210.425 288.404 -225.429 285.675 -239.94 283.036C-275.309 276.604 -311.879 269.954 -349.129 271.687L-349.249 269.127C-311.713 267.375 -274.993 274.056 -239.483 280.514C-224.996 283.148 -210.016 285.872 -195.165 287.992C-193.288 288.261 -191.356 288.544 -189.381 288.833C-169.486 291.75 -144.729 295.379 -125.802 290.591C-98.5257 283.687 -82.3275 252.858 -70.4993 230.348C-68.8341 227.177 -67.2601 224.181 -65.7483 221.431C-53.7888 199.66 -43.0673 176.987 -32.6981 155.061C-25.3634 139.55 -17.7789 123.511 -9.81332 107.911C-8.34503 105.035 -6.85541 102.048 -5.32831 98.9862C6.61331 75.0424 21.4745 45.2426 46.7168 29.4726C92.1085 1.12134 141.212 75.2587 164.809 110.89C167.981 115.68 170.72 119.816 172.824 122.735C175.5 126.45 178.164 130.195 180.834 133.949C196.669 156.205 213.042 179.218 233.948 198.512C242.674 206.567 252.194 214.785 264.134 219.002C270.743 221.337 277.223 221.407 284.084 221.48C287.427 221.514 290.884 221.552 294.402 221.866C330.916 225.127 362.205 246.297 392.465 266.771C403.253 274.071 413.444 280.966 423.595 286.842C443.087 298.126 465.998 310.279 491.273 311.651C518.248 313.113 541.548 300.38 560.759 287.724C576.218 277.543 590.577 265.355 605.78 252.451C638.625 224.568 672.586 195.736 718.34 188.61L718.733 191.143C673.695 198.158 640.006 226.754 607.425 254.408C592.171 267.363 577.753 279.6 562.166 289.868C543.646 302.062 521.394 314.331 495.549 314.331Z" fill="#D5E0FE" fill-opacity="0.3"/>
<path d="M498.44 326.907C496.591 326.907 494.729 326.841 492.844 326.705C467.643 324.879 444.334 313.143 424.464 302.286C414.04 296.59 403.748 290.117 392.853 283.262C362.925 264.435 331.978 244.967 296.295 240.885C293.002 240.508 289.724 240.347 286.553 240.19C279.396 239.836 272.635 239.5 265.716 236.901C253.542 232.327 243.822 224.103 234.909 216.071C213.835 197.085 196.973 174.623 180.665 152.901C177.999 149.35 175.34 145.806 172.668 142.286C170.498 139.426 167.652 135.355 164.356 130.64C140.26 96.1659 90.1198 24.4301 48.3289 51.8054C23.8369 67.8497 9.16327 95.519 -3.78363 119.933C-5.32779 122.845 -6.84213 125.699 -8.33856 128.467C-16.5233 143.611 -24.3781 159.191 -31.9745 174.258C-42.7283 195.59 -53.8488 217.647 -66.0999 238.848C-67.7354 241.679 -69.4364 244.753 -71.2373 248.009C-83.4944 270.162 -100.281 300.503 -127.548 308.421C-147.197 314.125 -173.109 309.984 -193.93 306.654L-197.544 306.079C-212.239 303.754 -226.961 300.77 -241.197 297.885C-276.006 290.83 -312 283.538 -349.251 285.687L-349.301 284.834C-311.94 282.672 -275.89 289.982 -241.029 297.047C-226.8 299.932 -212.088 302.913 -197.411 305.234L-193.796 305.81C-173.058 309.125 -147.248 313.252 -127.786 307.6C-100.856 299.781 -84.168 269.618 -71.9833 247.594C-70.18 244.335 -68.4781 241.258 -66.8375 238.42C-54.5992 217.241 -43.4846 195.193 -32.7351 173.872C-25.1361 158.801 -17.2796 143.214 -9.08804 128.061C-7.59247 125.294 -6.07983 122.441 -4.5365 119.531C8.45813 95.0275 23.1863 67.254 47.8625 51.0892C90.3415 23.2627 140.803 95.4548 165.055 130.15C168.345 134.858 171.186 138.922 173.347 141.769C176.019 145.289 178.68 148.834 181.348 152.387C197.63 174.076 214.467 196.505 235.478 215.435C244.331 223.413 253.981 231.58 266.017 236.103C272.81 238.654 279.506 238.985 286.596 239.336C289.779 239.494 293.071 239.656 296.391 240.036C332.267 244.14 363.297 263.661 393.306 282.539C404.19 289.387 414.471 295.853 424.873 301.536C444.664 312.351 467.874 324.038 492.906 325.852C519.416 327.779 542.291 315.553 563.053 302.059C578.674 291.913 593.724 279.413 608.279 267.323C640.765 240.346 674.352 212.45 719.492 204.846L719.629 205.688C674.719 213.254 641.217 241.076 608.825 267.981C594.253 280.086 579.177 292.603 563.522 302.777C544.099 315.394 522.836 326.906 498.44 326.907Z" fill="#D5E0FE" fill-opacity="0.2"/>
<path d="M501.661 337.262C498.876 337.262 496.062 337.109 493.216 336.785C468.962 334.014 446.524 324.212 425.889 314.03C415.988 309.147 405.912 303.602 396.169 298.241C366.196 281.747 335.202 264.693 299.724 260.662C271.693 257.475 258.226 253.344 238.477 236.481C217.163 218.282 199.507 196.734 182.433 175.897C180.029 172.963 177.631 170.037 175.229 167.126C172.579 163.916 169.936 160.686 167.287 157.448C150.585 137.033 133.315 115.922 112.549 97.994C95.1646 82.9889 74.6077 68.9573 53.9492 78.6653C29.7275 90.0475 13.902 116.269 1.18622 137.337C-0.514832 140.155 -2.16733 142.893 -3.78485 145.507C-15.4553 164.369 -26.4103 183.921 -37.0047 202.83C-45.5937 218.161 -54.4759 234.013 -63.6915 249.412C-65.3602 252.201 -67.063 255.112 -68.8135 258.106C-82.4254 281.381 -99.3662 310.349 -125.77 323.905C-145.537 334.053 -175.547 328.764 -197.46 324.901L-198.444 324.727C-214.206 321.951 -229.826 318.22 -244.932 314.61C-278.291 306.641 -312.788 298.401 -349.342 300.571L-349.393 299.719C-312.709 297.54 -278.153 305.796 -244.735 313.78C-229.641 317.385 -214.033 321.113 -198.296 323.886L-197.312 324.059C-175.519 327.9 -145.671 333.162 -126.158 323.143C-99.9759 309.701 -83.105 280.854 -69.5493 257.674C-67.7971 254.677 -66.0926 251.763 -64.4231 248.973C-55.2126 233.584 -46.3346 217.736 -37.7483 202.411C-27.1496 183.495 -16.1903 163.934 -4.50876 145.057C-2.89294 142.445 -1.24219 139.71 0.457184 136.895C13.2318 115.727 29.1315 89.3843 53.5869 77.891C74.6852 67.9762 95.5133 82.1616 113.105 97.3462C133.928 115.323 151.222 136.463 167.947 156.906C170.595 160.143 173.237 163.372 175.887 166.582C178.289 169.492 180.687 172.42 183.092 175.355C200.142 196.163 217.774 217.681 239.03 235.83C258.611 252.549 271.98 256.648 299.821 259.812C335.465 263.862 366.534 280.958 396.579 297.491C406.315 302.849 416.382 308.388 426.265 313.264C446.832 323.411 469.187 333.18 493.312 335.935C520.03 338.989 544.337 326.645 562.524 315.552C579.39 305.261 595.369 292.473 610.819 280.105C642.897 254.431 676.057 227.883 720.515 220.265L720.651 221.109C676.423 228.688 643.34 255.167 611.348 280.772C595.88 293.158 579.876 305.963 562.968 316.281C546.596 326.269 525.288 337.261 501.661 337.262Z" fill="#D5E0FE" fill-opacity="0.3"/>
<path d="M-162.101 349.94C-178.115 349.941 -194.452 346.394 -205.131 344.075C-220.316 340.779 -235.175 336.449 -249.544 332.261C-282.51 322.653 -313.653 313.579 -349.44 315.489L-349.486 314.637C-313.551 312.711 -282.343 321.812 -249.306 331.439C-234.951 335.624 -220.107 339.95 -204.95 343.24C-187.698 346.985 -155.587 353.957 -134.291 343.847C-107.883 331.311 -89.6357 303.988 -74.9741 282.033C-73.2594 279.465 -71.5839 276.955 -69.94 274.534C-60.1966 260.187 -50.7482 245.385 -41.6101 231.07C-30.3259 213.395 -18.658 195.118 -6.33188 177.529C-4.73654 175.252 -3.1105 172.888 -1.4444 170.467C12.3432 150.433 29.5014 125.499 54.1435 114.742C75.3186 105.495 96.5867 118.491 114.597 132.424C135.898 148.901 153.994 168.575 171.495 187.601C174.146 190.483 176.792 193.36 179.443 196.22C181.851 198.815 184.255 201.426 186.667 204.043C204.493 223.394 222.926 243.404 244.635 260.033C265.255 275.828 280.302 279.537 306.228 281.876C340.794 284.993 371.989 299.059 402.157 312.662C411.784 317.003 421.738 321.491 431.55 325.496C450.92 333.403 473.976 341.778 498.131 343.96C525.305 346.421 549.052 334.945 566.711 324.679C583.44 314.953 599.206 302.962 614.46 291.367C645.855 267.497 678.325 242.816 721.547 235.715L721.683 236.558C678.674 243.625 646.29 268.242 614.98 292.048C599.7 303.659 583.909 315.666 567.137 325.419C551.022 334.787 529.858 345.149 505.61 345.151C503.121 345.151 500.605 345.042 498.054 344.811C473.789 342.62 450.657 334.217 431.229 326.288C421.402 322.277 411.441 317.786 401.807 313.441C371.703 299.867 340.575 285.831 306.151 282.727C280.055 280.373 264.905 276.637 244.117 260.713C222.35 244.038 203.891 224.001 186.04 204.623C183.63 202.006 181.225 199.397 178.819 196.8C176.167 193.941 173.52 191.063 170.869 188.18C153.392 169.18 135.32 149.534 114.076 133.1C82.3336 108.547 66.138 110.437 54.4846 115.525C30.065 126.185 12.9827 151.007 -0.741791 170.953C-2.40961 173.376 -4.03735 175.742 -5.6344 178.02C-17.9495 195.594 -29.6122 213.863 -40.8913 231.531C-50.0328 245.851 -59.4854 260.657 -69.2348 275.015C-70.8779 277.435 -72.5517 279.942 -74.2656 282.508C-88.9851 304.551 -107.305 331.982 -133.926 344.62C-142.215 348.555 -152.097 349.94 -162.101 349.94Z" fill="#D5E0FE" fill-opacity="0.2"/>
<path d="M-169.502 371.292C-184.909 371.292 -200.813 367.654 -213.166 364.308C-227.65 360.382 -241.581 355.349 -255.052 350.482C-285.671 339.42 -314.597 328.965 -349.543 330.439L-349.579 329.585C-314.467 328.118 -285.464 338.587 -254.763 349.678C-241.308 354.54 -227.394 359.567 -212.944 363.483C-193.501 368.751 -165.218 374.746 -144.167 366.006C-117.543 354.953 -98.603 330.771 -81.8924 309.436C-80.0975 307.146 -78.3385 304.9 -76.6093 302.722C-65.8716 289.201 -55.458 275.181 -45.388 261.622C-33.6349 245.8 -21.4818 229.438 -8.73615 213.763C-7.26443 211.953 -5.76971 210.094 -4.246 208.199C11.6042 188.485 29.5682 166.14 54.6801 156.462C76.4112 148.09 98.0988 159.527 116.446 171.822C138.334 186.488 157.368 204.422 175.775 221.766C178.422 224.26 181.063 226.749 183.707 229.223C186.109 231.471 188.511 233.731 190.918 235.996C209.652 253.625 229.026 271.854 251.297 286.649C272.855 300.97 288.677 304.103 313.951 305.389C347.374 307.09 378.763 317.632 409.118 327.827C418.544 330.992 428.289 334.266 437.912 337.208C479.519 349.935 524.512 358.171 571.597 332.498C588.096 323.5 603.606 312.458 618.596 301.78C649.198 279.983 680.84 257.445 722.578 251.196L722.706 252.04C681.173 258.26 649.607 280.738 619.09 302.477C604.075 313.17 588.548 324.225 571.997 333.249C549.376 345.586 527.241 350.143 505.737 350.143C482.231 350.144 459.485 344.701 437.663 338.027C428.03 335.08 418.278 331.804 408.847 328.637C378.546 318.461 347.214 307.938 313.907 306.242C288.475 304.948 272.549 301.793 250.826 287.361C228.495 272.526 209.095 254.273 190.334 236.619C187.928 234.355 185.528 232.095 183.125 229.847C180.48 227.373 177.838 224.884 175.191 222.389C156.808 205.068 137.801 187.159 115.972 172.533C97.8063 160.359 76.3524 149.023 54.9862 157.26C30.0883 166.855 12.2003 189.106 -3.58261 208.735C-5.10632 210.631 -6.60275 212.493 -8.07532 214.304C-20.8091 229.963 -32.9561 246.317 -44.7033 262.133C-54.7784 275.697 -65.1955 289.722 -75.9425 303.255C-77.6708 305.431 -79.4282 307.675 -81.2214 309.965C-97.9967 331.382 -117.011 355.658 -143.84 366.795C-151.687 370.053 -160.511 371.292 -169.502 371.292Z" fill="#D5E0FE" fill-opacity="0.3"/>
<path d="M-177.794 393.375C-190.744 393.375 -205.508 390.594 -221.951 385.042C-235.646 380.418 -248.533 374.62 -260.996 369.011C-289.018 356.403 -315.49 344.486 -349.649 345.421L-349.672 344.566C-315.309 343.641 -288.76 355.583 -260.647 368.231C-248.203 373.832 -235.334 379.622 -221.679 384.233C-194.655 393.358 -172.225 394.957 -155.011 388.988C-127.812 379.558 -107.048 357.24 -88.7286 337.549C-87.1017 335.801 -85.5004 334.079 -83.9204 332.396C-72.5049 320.23 -61.3648 307.564 -50.5922 295.315C-38.0094 281.007 -24.9977 266.213 -11.4624 252.121C-10.2457 250.853 -9.01361 249.564 -7.767 248.259C9.6564 230.017 29.4033 209.341 55.205 200.934C96.8723 187.362 143.721 226.774 174.722 252.855C179.63 256.986 184.266 260.886 188.368 264.14C190.745 266.026 193.123 267.924 195.505 269.823C215.247 285.568 235.662 301.848 258.552 314.642C281.261 327.335 297.875 329.685 322.414 329.738C354.814 329.808 386.459 336.489 417.062 342.949C426.17 344.872 435.588 346.861 444.882 348.643C487.746 356.869 533.405 361.464 576.874 339.586C593.109 331.418 608.304 321.423 622.995 311.756C652.753 292.183 683.526 271.942 723.618 266.706L723.729 267.554C683.833 272.764 653.145 292.95 623.464 312.47C608.747 322.151 593.535 332.16 577.258 340.35C533.559 362.343 487.734 357.738 444.722 349.484C435.42 347.698 425.998 345.709 416.887 343.786C386.326 337.334 354.724 330.662 322.413 330.592C298.274 330.54 280.881 328.101 258.137 315.388C235.185 302.559 214.743 286.257 194.974 270.492C192.593 268.593 190.215 266.697 187.837 264.81C183.727 261.548 179.086 257.644 174.173 253.51C143.317 227.55 96.6864 188.318 55.4684 201.748C29.8714 210.087 10.2021 230.681 -7.15051 248.85C-8.39798 250.156 -9.63007 251.446 -10.8485 252.713C-24.3701 266.792 -37.375 281.579 -49.9527 295.88C-60.7304 308.134 -71.8748 320.806 -83.2996 332.981C-84.8779 334.663 -86.4792 336.384 -88.1053 338.132C-106.492 357.896 -127.333 380.296 -154.733 389.796C-161.615 392.183 -169.317 393.374 -177.794 393.375Z" fill="#D5E0FE" fill-opacity="0.3"/>
<path d="M-186.323 415.695C-203.105 415.695 -219.068 410.816 -230.887 405.902C-243.743 400.557 -255.53 393.971 -266.928 387.602C-292.277 373.44 -316.187 360.039 -349.757 360.432L-349.766 359.577C-315.968 359.189 -291.962 372.637 -266.513 386.856C-255.136 393.213 -243.371 399.785 -230.56 405.112C-214.095 411.958 -189.539 418.738 -166.05 412.169C-138.204 404.378 -115.489 384.024 -95.4474 366.066C-94.0695 364.832 -92.707 363.61 -91.3581 362.408C-79.2621 351.621 -67.3845 340.332 -55.8982 329.414C-42.4678 316.649 -28.5796 303.449 -14.2505 290.964L-11.8289 288.852C7.33646 272.123 29.0581 253.164 55.7287 246.038C98.8302 234.523 144.967 266.394 178.654 289.666C183.763 293.194 188.587 296.527 193.114 299.515C195.448 301.057 197.783 302.604 200.121 304.156C220.918 317.947 242.424 332.207 265.942 342.98C287.092 352.667 304.127 355.634 331.05 354.31C362.651 352.757 394.46 355.384 425.223 357.925C433.991 358.65 443.06 359.398 451.993 360.039C496.046 363.205 542.393 364.768 582.263 346.517C598.183 339.229 613.062 330.317 627.455 321.699C657.707 303.583 686.28 286.472 724.667 282.251L724.761 283.101C686.562 287.301 658.065 304.366 627.89 322.433C613.479 331.062 598.583 339.987 582.613 347.295C542.563 365.63 496.096 364.065 451.932 360.893C442.994 360.25 433.924 359.502 425.154 358.777C394.417 356.239 362.635 353.617 331.092 355.163C304.021 356.494 286.878 353.51 265.587 343.757C242.01 332.956 220.476 318.678 199.65 304.868C197.312 303.317 194.979 301.77 192.644 300.229C188.111 297.236 183.283 293.901 178.171 290.369C144.619 267.193 98.6707 235.448 55.9487 246.864C29.4691 253.939 7.82587 272.828 -11.2687 289.496L-13.6912 291.609C-28.0058 304.081 -41.8872 317.274 -55.3116 330.034C-66.8029 340.956 -78.6849 352.25 -90.791 363.047C-92.1391 364.249 -93.5025 365.47 -94.8796 366.703C-114.99 384.723 -137.784 405.148 -165.821 412.991C-172.642 414.899 -179.549 415.695 -186.323 415.695Z" fill="#D5E0FE" fill-opacity="0.3"/>
</g>
<defs>
<clipPath id="clip0_105_719">
<rect width="375" height="416" fill="white"/>
</clipPath>
</defs>
</svg>
