<svg width="1440" height="557" viewBox="0 0 1440 557" fill="none" xmlns="http://www.w3.org/2000/svg">
<path d="M1437.67 371.641L1437.93 372.756C1393.88 382.993 1380.35 413.419 1366.03 445.633C1360.08 459.011 1353.93 472.846 1345.41 485.028C1329.26 508.116 1307.01 519.902 1282.77 518.237C1248 515.836 1212.83 507.207 1178.82 498.863C1172.96 497.426 1167.15 495.999 1161.39 494.617C1137.05 488.781 1112.3 482.29 1088.36 476.014C1029.06 460.461 967.732 444.38 905.822 436.336C888.697 434.109 871.043 435.769 853.969 437.372C843.979 438.311 833.648 439.282 823.507 439.47C799.094 439.918 774.331 438.629 750.379 437.378L743.691 437.029C685.281 434.01 632.727 432.451 581.035 443.982C524.335 456.629 469.672 477.973 416.809 498.615C396.027 506.729 374.539 515.119 353.357 522.803C348.209 524.672 343.037 526.586 337.842 528.509C280.708 549.653 221.628 571.519 162.452 544.253C147.443 537.337 134.183 529.607 121.368 522.13C91.7166 504.838 63.7218 488.507 20.8217 486.859L20.8674 485.714C64.0416 487.373 92.1735 503.775 121.939 521.141C134.742 528.604 147.969 536.321 162.931 543.214C221.674 570.282 280.53 548.499 337.446 527.435C342.643 525.513 347.819 523.597 352.969 521.729C374.137 514.048 395.619 505.66 416.394 497.548C469.298 476.892 524.001 455.532 580.787 442.865C632.618 431.302 685.256 432.863 743.75 435.887L750.439 436.235C774.371 437.486 799.12 438.775 823.486 438.326C833.584 438.139 843.893 437.17 853.863 436.234C870.998 434.624 888.714 432.958 905.969 435.2C967.951 443.254 1029.31 459.344 1088.65 474.906C1112.58 481.182 1137.33 487.671 1161.65 493.505C1167.42 494.887 1173.23 496.314 1179.09 497.753C1213.06 506.084 1248.18 514.7 1282.84 517.095C1315 519.317 1335.26 497.545 1344.48 484.37C1352.93 472.28 1359.06 458.496 1364.99 445.169C1378.79 414.116 1393.06 382.006 1437.67 371.641Z" fill="#D5E0FE" fill-opacity="0.2"/>
<path d="M1437.55 350.987L1438.3 354.34C1396.34 363.663 1379.44 389.644 1361.54 417.15C1353.92 428.864 1346.04 440.978 1335.99 452.126C1322.73 466.837 1300.77 484.214 1271.4 483.469C1243.52 482.762 1214.95 479.005 1187.32 475.371C1176.89 474 1166.11 472.582 1155.63 471.367C1129.73 468.364 1103.42 465.163 1077.98 462.068C1023.22 455.407 966.596 448.517 910.708 443.193C895.844 441.779 881.007 442.474 866.659 443.149C854.189 443.732 841.296 444.34 828.26 443.588C801.428 442.038 774.786 436.979 749.021 432.088L743.072 430.96C691.078 421.129 639.643 413.252 582.091 424.712C527.353 435.61 473.424 452.361 421.271 468.56C401.945 474.562 381.96 480.77 362.27 486.573C356.142 488.378 350.025 490.225 343.915 492.071C288.276 508.873 230.743 526.251 170.47 508.711C153.886 503.886 138.432 498.207 123.481 492.713C90.3804 480.548 59.119 469.059 19.4512 467.786L19.5541 464.356C59.77 465.644 91.2942 477.227 124.669 489.491C139.563 494.963 154.959 500.624 171.418 505.414C230.72 522.666 285.224 506.207 342.925 488.785C349.044 486.938 355.167 485.087 361.304 483.279C380.97 477.483 400.942 471.28 420.256 465.28C472.495 449.055 526.511 432.278 581.424 421.344C639.53 409.772 693.455 418.084 743.707 427.586L749.66 428.715C775.317 433.586 801.847 438.623 828.458 440.16C841.312 440.9 854.117 440.299 866.499 439.719C880.966 439.04 895.925 438.336 911.032 439.777C966.965 445.104 1023.61 451.996 1078.39 458.659C1103.83 461.756 1130.14 464.956 1156.02 467.957C1166.53 469.174 1177.32 470.594 1187.76 471.966C1215.31 475.589 1243.78 479.335 1271.49 480.038C1299.55 480.76 1320.67 464.002 1333.45 449.827C1343.31 438.878 1351.12 426.879 1358.67 415.275C1376.96 387.165 1394.23 360.614 1437.55 350.987Z" fill="#D5E0FE" fill-opacity="0.2"/>
<path d="M1437.94 332.522L1438.15 333.647C1397.05 341.394 1375.41 363.093 1352.5 386.065C1342.87 395.72 1332.92 405.702 1321.16 415.05C1284.51 444.18 1234.53 443.751 1186.19 443.343C1171.69 443.219 1156.7 443.092 1142.52 443.803C1120.78 444.896 1098.64 446.243 1077.23 447.544C1022.56 450.87 966.036 454.3 910.383 453.877C902.422 453.819 894.357 454.01 886.559 454.197C867.457 454.658 847.706 455.133 828.286 451.835C801.318 447.251 775.486 438.099 750.504 429.249C747.978 428.354 745.453 427.46 742.933 426.572C690.167 407.981 641.584 393.374 581.297 403.007C528.233 411.482 474.914 422.692 423.35 433.533C405.123 437.364 386.275 441.327 367.72 445.11C363.072 446.058 358.445 447.01 353.837 447.958C294.733 460.13 238.909 471.624 177.403 464.238C160.67 462.231 144.04 459.712 127.958 457.277C90.9515 451.674 56.0009 446.383 18.1605 446.375L18.1605 445.23C56.0808 445.238 92.7105 450.783 128.118 456.144C144.2 458.579 160.83 461.095 177.54 463.102C238.864 470.465 294.598 458.99 353.608 446.837C358.216 445.888 362.844 444.936 367.493 443.988C386.045 440.207 404.89 436.245 423.116 432.413C474.693 421.568 528.025 410.357 581.117 401.875C641.665 392.206 690.396 406.849 743.312 425.492C745.833 426.38 748.357 427.275 750.884 428.17C775.82 437.005 801.606 446.139 828.477 450.706C847.789 453.99 867.485 453.513 886.532 453.054C894.339 452.865 902.416 452.675 910.392 452.733C966 453.162 1022.51 449.726 1077.16 446.403C1098.57 445.101 1120.71 443.754 1142.46 442.661C1156.68 441.946 1171.69 442.074 1186.2 442.199C1234.34 442.603 1284.11 443.032 1320.45 414.154C1332.15 404.847 1342.09 394.888 1351.69 385.256C1374.73 362.156 1396.49 340.335 1437.94 332.522Z" fill="#D5E0FE" fill-opacity="0.2"/>
<path d="M1438.09 312.899L1438.25 314.031C1398.16 319.726 1370.89 336.729 1342.02 354.729C1330.42 361.96 1318.43 369.437 1305.26 376.396C1282.94 388.182 1259.18 394.936 1232.6 397.043C1195.67 399.971 1160.27 408.265 1127.52 416.79C1106.94 422.152 1085.98 428.251 1065.7 434.149C1015.24 448.832 963.05 464.013 909.817 470.007C845.468 477.253 799.931 456.249 742.627 425.786C685.064 395.187 642.71 375.612 580.806 382.108C533.853 387.033 486.029 391.436 439.776 395.695C418.361 397.667 396.218 399.706 374.448 401.77C267.418 411.917 153.783 419.634 16.8359 426.056L16.7902 424.914C153.714 418.492 267.327 410.776 374.341 400.63C396.112 398.566 418.257 396.528 439.672 394.555C485.92 390.297 533.742 385.895 580.688 380.971C647.56 373.949 696.162 399.79 743.161 424.776C800.284 455.141 845.666 476.079 909.691 468.869C962.826 462.887 1014.96 447.719 1065.38 433.05C1085.67 427.149 1106.64 421.047 1127.24 415.684C1160.04 407.144 1195.49 398.836 1232.51 395.903C1258.93 393.808 1282.55 387.095 1304.73 375.383C1317.87 368.444 1329.84 360.977 1341.42 353.759C1370.39 335.692 1397.76 318.627 1438.09 312.899Z" fill="#D5E0FE" fill-opacity="0.2"/>
<path d="M1438.23 293.233L1438.34 294.373C1398.39 298.097 1364.99 310.025 1329.64 322.654C1316.4 327.384 1302.7 332.275 1288.58 336.727C1268.01 343.21 1247.9 346.11 1226.6 349.181C1221.44 349.924 1216.11 350.694 1210.79 351.515C1175.06 357.032 1141.45 374.279 1111.79 389.496C1092.95 399.163 1073.8 410.158 1055.28 420.79C1009.28 447.195 961.717 474.499 909.201 487.929C848.568 503.434 798.511 466.934 754.348 434.73C750.284 431.767 746.285 428.852 742.349 426.031L739.682 424.12C690.389 388.774 647.796 358.224 580.346 361.049C532.542 363.027 483.852 361.047 436.765 359.128C418.668 358.39 399.955 357.628 381.583 357.105C311.564 355.106 252.752 356.402 193.302 369.231C175.495 373.074 157.7 377.393 140.499 381.568C100.317 391.32 58.765 401.403 15.5221 405.694L15.408 404.554C58.5823 400.272 100.089 390.199 140.225 380.457C157.438 376.278 175.233 371.959 193.062 368.113C252.627 355.26 311.512 353.961 381.616 355.959C399.995 356.485 418.712 357.247 436.813 357.985C483.876 359.903 532.54 361.888 580.3 359.905C648.15 357.088 690.881 387.721 740.347 423.188L743.014 425.101C746.952 427.922 750.953 430.841 755.019 433.805C798.98 465.86 848.8 502.191 908.918 486.82C961.284 473.429 1008.78 446.165 1054.71 419.798C1073.24 409.159 1092.41 398.157 1111.27 388.478C1141 373.221 1174.7 355.93 1210.62 350.384C1215.94 349.563 1221.28 348.792 1226.44 348.047C1247.69 344.985 1267.76 342.09 1288.24 335.636C1302.34 331.19 1316.02 326.302 1329.25 321.577C1364.68 308.922 1398.14 296.971 1438.23 293.233Z" fill="#D5E0FE" fill-opacity="0.1"/>
<path d="M1438.38 273.53L1438.43 274.672C1396.97 276.746 1356.24 283.566 1316.84 290.16C1302.28 292.599 1287.21 295.12 1272.24 297.385C1260.88 299.104 1248.83 299.935 1237.18 300.739C1221.16 301.846 1204.59 302.989 1189.45 306.454C1155.94 314.115 1127.27 337.267 1101.98 357.693C1100.08 359.228 1098.2 360.744 1096.35 362.231C1079.32 375.904 1062.9 390.896 1045.52 406.766C1004.11 444.572 961.296 483.666 908.605 505.129C851.429 528.421 794.291 474.731 756.48 439.201C751.357 434.388 746.518 429.84 742.081 425.858C739.323 423.382 736.567 420.894 733.807 418.403C711.373 398.149 688.177 377.206 661.114 360.842C633.774 344.311 610.623 340.675 579.873 339.981C532.851 338.918 485.847 330.267 440.389 321.902C423.394 318.774 405.817 315.54 388.581 312.77C294.659 297.679 247.293 304.861 201.32 321.338C181.96 328.277 163.069 336.135 144.817 343.736C102.179 361.476 61.9174 378.233 14.1973 385.288L14.0259 384.156C61.609 377.123 101.814 360.39 144.371 342.678C162.646 335.074 181.549 327.209 200.932 320.26C263.181 297.951 318.948 300.421 388.762 311.641C406.011 314.411 423.592 317.648 440.596 320.776C486.01 329.134 532.969 337.776 579.899 338.837C610.841 339.535 634.146 343.2 661.704 359.864C688.859 376.283 712.098 397.263 734.572 417.554C737.33 420.044 740.085 422.53 742.842 425.006C747.29 428.997 752.134 433.548 757.261 438.367C794.86 473.694 851.681 527.078 908.176 504.069C960.677 482.683 1003.42 443.659 1044.75 405.921C1062.14 390.037 1078.57 375.033 1095.63 361.338C1097.49 359.851 1099.36 358.337 1101.26 356.802C1126.65 336.298 1155.43 313.059 1189.19 305.338C1204.42 301.854 1221.04 300.707 1237.1 299.598C1248.73 298.796 1260.75 297.965 1272.07 296.254C1287.04 293.991 1302.09 291.47 1316.65 289.032C1356.08 282.432 1396.85 275.607 1438.38 273.53Z" fill="#D5E0FE" fill-opacity="0.2"/>
<path d="M295.26 249.879C296.659 249.879 298.056 249.904 299.462 249.954C333.341 251.153 367.651 261.229 395.218 269.326C411.489 274.104 428.101 279.608 444.165 284.929C487.73 299.361 532.778 314.283 579.428 317.92C611.632 320.433 634.198 325.517 661.174 345.163C688.613 365.145 711.472 389.654 733.578 413.356C736.597 416.593 739.609 419.822 742.628 423.035C746.469 427.123 750.876 432.122 755.98 437.912C773.662 457.971 797.878 485.442 824.618 504.244C856.498 526.661 883.629 531.194 907.56 518.1C940.156 500.263 965.35 471.243 987.577 445.639L991.501 441.121C1005.16 425.434 1018.53 409.181 1031.47 393.463C1047.51 373.973 1064.1 353.819 1081.37 334.554C1083.75 331.9 1086.2 329.122 1088.72 326.257C1109.93 302.165 1136.34 272.179 1169.78 262.554C1187.88 257.344 1210.18 257.873 1231.76 258.385C1240.81 258.601 1249.37 258.803 1257.34 258.572C1267.22 258.284 1277.1 257.992 1286.98 257.701C1336.63 256.236 1387.98 254.72 1438.51 253.789L1438.53 254.934C1388.01 255.864 1336.66 257.379 1287.01 258.845C1277.13 259.137 1267.25 259.429 1257.37 259.716C1249.38 259.947 1240.8 259.743 1231.73 259.529C1210.24 259.019 1188.02 258.494 1170.09 263.654C1136.98 273.187 1110.69 303.032 1089.57 327.015C1087.05 329.88 1084.6 332.663 1082.22 335.318C1064.96 354.567 1048.38 374.71 1032.35 394.191C1019.41 409.914 1006.03 426.174 992.362 441.874L988.439 446.39C966.148 472.066 940.883 501.17 908.109 519.103C884.095 532.244 855.785 527.56 823.962 505.182C797.112 486.3 772.844 458.771 755.124 438.67C750.027 432.888 745.624 427.894 741.796 423.819C738.777 420.606 735.763 417.374 732.744 414.137C710.675 390.474 687.854 366.007 660.503 346.088C633.746 326.603 611.335 321.557 579.339 319.061C532.55 315.414 487.437 300.468 443.807 286.015C427.751 280.697 411.148 275.196 394.897 270.424C367.39 262.346 333.157 252.291 299.422 251.098C267.269 249.972 236.75 262.24 208.55 275.68C188.174 285.392 168.597 296.495 149.659 307.231C108.084 330.805 65.104 355.181 12.8608 364.845L12.6553 363.721C64.7042 354.091 105.697 330.845 149.1 306.235C168.049 295.489 187.648 284.376 208.059 274.647C235.163 261.731 264.414 249.882 295.26 249.879Z" fill="#D5E0FE" fill-opacity="0.2"/>
<path d="M300.654 203.574C302.748 203.573 304.848 203.639 306.964 203.773C341.135 205.952 375.406 220.239 400.429 230.671C415.763 237.064 431.487 244.494 446.692 251.68C488.594 271.479 531.923 291.953 578.827 297.315C612.361 301.147 634.218 307.096 660.609 328.967C688.301 351.915 710.857 379.399 732.67 405.974C735.897 409.907 739.118 413.831 742.348 417.732C745.565 421.618 749.565 426.815 754.198 432.832C770.653 454.207 795.521 486.508 822.965 508.93C855.594 535.589 883.923 541.466 907.165 526.387C939.158 505.636 961.335 472.643 980.903 443.534C982.752 440.782 984.584 438.059 986.404 435.373C998.996 416.791 1011.2 397.618 1023.01 379.079C1037.87 355.745 1053.23 331.619 1069.52 308.42C1071.89 305.042 1074.34 301.443 1076.93 297.63C1096.03 269.59 1119.79 234.694 1153.92 223.821C1173.81 217.488 1201.13 220.035 1225.23 222.283C1232.33 222.944 1239.03 223.569 1245.15 223.927C1263.94 225.026 1282.99 226.38 1301.42 227.691C1346.28 230.879 1392.7 234.17 1438.65 234.014L1438.65 235.159C1392.65 235.308 1346.22 232.022 1301.34 228.832C1282.92 227.522 1263.86 226.168 1245.08 225.069C1238.95 224.71 1232.24 224.084 1225.13 223.421C1201.13 221.183 1173.93 218.648 1154.27 224.911C1120.52 235.665 1096.88 270.38 1077.88 298.274C1075.28 302.09 1072.83 305.695 1070.45 309.08C1054.18 332.255 1038.82 356.371 1023.97 379.694C1012.16 398.241 999.95 417.42 987.348 436.017C985.53 438.7 983.699 441.423 981.85 444.173C962.221 473.374 939.975 506.469 907.785 527.348C884.078 542.722 855.298 536.824 822.243 509.818C794.697 487.312 769.782 454.947 753.293 433.531C748.668 427.522 744.673 422.332 741.47 418.464C738.238 414.56 735.016 410.635 731.787 406.702C710.009 380.166 687.488 352.728 659.881 329.849C633.555 308.032 612.727 302.341 578.697 298.452C531.607 293.068 488.191 272.554 446.204 252.714C431.011 245.535 415.3 238.11 399.989 231.728C375.041 221.326 340.871 207.082 306.89 204.916C272.842 202.739 241.285 218.857 214.387 234.127C193.439 246.014 173.417 259.85 154.057 273.232C111.591 302.58 67.674 332.929 11.5131 344.371L11.2847 343.248C67.2171 331.854 111.031 301.573 153.406 272.289C172.788 258.895 192.834 245.043 213.827 233.13C239.206 218.724 268.72 203.574 300.654 203.574Z" fill="#D5E0FE" fill-opacity="0.2"/>
<path d="M305.016 165.206C307.274 165.206 309.537 165.286 311.818 165.45C344.358 167.796 375.12 182.485 403.836 197.331C418.286 204.8 432.561 213.273 447.674 222.245C488.401 246.421 530.514 271.42 578.036 277.174C582.323 277.692 586.59 277.959 590.719 278.217C600.388 278.823 609.521 279.394 618.85 282.938C635.28 289.18 648.187 300.042 659.997 310.634C687.93 335.681 710.216 365.37 731.767 394.083C735.174 398.621 738.572 403.148 741.983 407.645C744.831 411.402 748.538 416.689 752.832 422.811C768.99 445.855 793.409 480.679 821.217 505.692C854.476 535.611 883.364 542.579 907.081 526.411C939.486 504.314 959.673 468.039 977.483 436.032C979.399 432.591 981.283 429.203 983.152 425.891C994.296 406.136 1005.03 385.807 1015.41 366.147C1029.86 338.767 1044.81 310.454 1061.11 283.233C1063.43 279.364 1065.84 275.142 1068.4 270.673C1085.03 241.633 1107.81 201.861 1143.18 190.926C1165.19 184.122 1196.35 188.323 1221.39 191.697C1226.78 192.424 1231.87 193.111 1236.61 193.655C1256.13 195.906 1275.84 198.679 1294.9 201.36C1341.67 207.938 1390.02 214.745 1438.77 214.206L1438.78 215.35C1389.96 215.91 1341.55 209.077 1294.74 202.493C1275.69 199.813 1255.99 197.041 1236.48 194.794C1231.73 194.245 1226.64 193.56 1221.24 192.832C1196.31 189.473 1165.28 185.289 1143.52 192.019C1108.58 202.821 1085.93 242.368 1069.39 271.243C1066.83 275.717 1064.41 279.943 1062.09 283.82C1045.8 311.017 1030.86 339.315 1016.42 366.683C1006.03 386.349 995.299 406.685 984.147 426.454C982.279 429.765 980.395 433.151 978.481 436.59C960.609 468.706 940.352 505.108 907.722 527.356C883.517 543.859 854.155 536.858 820.454 506.543C792.549 481.444 768.086 446.554 751.897 423.468C747.611 417.356 743.909 412.077 741.074 408.338C737.661 403.838 734.261 399.309 730.854 394.77C709.335 366.103 687.085 336.458 659.235 311.487C647.504 300.967 634.693 290.18 618.444 284.008C609.277 280.525 600.229 279.959 590.647 279.36C586.503 279.101 582.218 278.832 577.901 278.309C530.139 272.527 487.921 247.466 447.091 223.229C431.993 214.267 417.732 205.801 403.312 198.347C374.7 183.557 344.061 168.922 311.735 166.592C278.037 164.167 246.859 180.513 218.202 198.544C197.106 211.816 176.878 227.706 157.323 243.073C114.069 277.067 69.3301 312.219 10.1425 323.864L9.91408 322.742C68.839 311.149 113.464 276.083 156.615 242.172C176.204 226.788 196.443 210.878 217.596 197.573C244.483 180.654 273.596 165.208 305.016 165.206Z" fill="#D5E0FE" fill-opacity="0.2"/>
<path d="M307.358 136.129C309.314 136.129 311.283 136.181 313.269 136.289C347.882 138.167 379.003 154.656 405.456 169.962C419.156 177.89 432.857 187.156 447.36 196.963C487.533 224.133 529.074 252.228 577.103 256.514C581.683 256.924 586.246 256.972 590.659 257.019C599.723 257.115 609.097 257.214 618.486 260.531C635.092 266.394 648.151 277.651 660.103 288.678C688.367 314.755 710.404 345.715 731.718 375.658C735.291 380.679 738.856 385.686 742.437 390.655C745.295 394.618 748.982 400.183 753.25 406.627C784.261 453.433 848.793 550.83 906.771 514.623C939.764 494.022 959.432 454.602 975.234 422.929C977.285 418.818 979.286 414.809 981.257 410.949C991.904 390.107 1002.05 368.657 1011.87 347.912C1025.78 318.508 1040.16 288.102 1056.23 258.861C1058.24 255.206 1060.34 251.208 1062.57 246.977C1078.71 216.266 1100.82 174.207 1138.84 164.588C1164.85 158.003 1198.39 162.923 1225.34 166.871C1227.98 167.259 1230.56 167.638 1233.08 167.996C1253.03 170.844 1273.13 174.498 1292.57 178.031C1339.95 186.644 1388.94 195.547 1438.83 193.226L1438.99 196.654C1388.71 199 1339.52 190.055 1291.96 181.409C1272.55 177.881 1252.49 174.234 1232.59 171.395C1230.08 171.035 1227.49 170.657 1224.84 170.269C1198.2 166.363 1165.03 161.505 1139.68 167.916C1103.14 177.16 1081.44 218.438 1065.6 248.577C1063.37 252.824 1061.26 256.835 1059.23 260.517C1043.21 289.667 1028.85 320.024 1014.96 349.382C1005.14 370.15 994.978 391.626 984.308 412.513C982.341 416.364 980.346 420.363 978.3 424.463C962.304 456.523 942.397 496.423 908.584 517.538C847.78 555.499 782.004 456.233 750.394 408.525C746.147 402.111 742.477 396.574 739.659 392.665C736.074 387.69 732.506 382.677 728.928 377.65C707.717 347.851 685.785 317.037 657.781 291.203C646.092 280.418 633.34 269.415 617.346 263.769C608.493 260.643 599.812 260.549 590.622 260.451C586.144 260.405 581.513 260.355 576.801 259.935C527.889 255.568 485.976 227.223 445.442 199.809C430.99 190.035 417.34 180.803 403.742 172.935C377.632 157.827 346.942 141.554 313.084 139.718C276.95 137.76 245.739 154.809 220.006 171.754C199.298 185.387 180.064 201.706 159.699 218.983C115.703 256.316 70.2095 294.921 8.9203 304.462L8.39491 301.071C68.7247 291.678 113.852 253.39 157.495 216.362C177.928 199.016 197.243 182.632 218.122 168.884C242.93 152.557 272.737 136.129 307.358 136.129Z" fill="#D5E0FE" fill-opacity="0.2"/>
<path d="M303.486 119.29C305.962 119.29 308.456 119.379 310.982 119.56C344.739 122.006 375.963 137.72 402.579 152.256C416.543 159.883 430.329 168.55 444.923 177.728C485.013 202.937 526.467 229.004 574.266 234.469C578.677 234.973 583.068 235.19 587.316 235.4C596.903 235.874 605.959 236.323 615.227 239.803C631.535 245.927 644.556 256.939 656.495 267.693C684.724 293.114 707.312 323.19 729.156 352.275C732.727 357.029 736.29 361.774 739.868 366.487C742.775 370.316 746.588 375.768 751.002 382.081C783.28 428.239 850.445 524.29 906.425 487.636C939.233 466.153 958.889 429.106 976.232 396.417C978.3 392.518 980.328 388.696 982.333 384.99C993.297 364.713 1003.82 343.852 1013.99 323.679C1028.4 295.117 1043.3 265.583 1059.71 237.196C1061.9 233.406 1064.18 229.29 1066.59 224.931C1083.01 195.269 1105.49 154.644 1142.02 144.042C1168.34 136.405 1203.05 141.95 1230.94 146.407L1235.78 147.178C1255.46 150.291 1275.18 154.286 1294.25 158.149C1340.88 167.596 1389.1 177.359 1439 174.482L1439.06 175.624C1389.02 178.519 1340.73 168.731 1294.03 159.272C1274.97 155.409 1255.26 151.417 1235.6 148.309L1230.76 147.538C1202.98 143.099 1168.41 137.574 1142.34 145.141C1106.26 155.611 1083.91 195.998 1067.59 225.486C1065.17 229.85 1062.89 233.97 1060.69 237.77C1044.3 266.127 1029.41 295.648 1015.01 324.195C1004.83 344.375 994.31 365.244 983.337 385.534C981.334 389.239 979.307 393.058 977.24 396.955C959.833 429.764 940.104 466.951 907.05 488.595C850.148 525.853 782.553 429.192 750.067 382.737C745.659 376.434 741.853 370.991 738.959 367.179C735.379 362.466 731.816 357.719 728.242 352.962C706.431 323.922 683.877 293.891 655.732 268.544C643.874 257.863 630.947 246.928 614.825 240.872C605.725 237.457 596.756 237.012 587.258 236.544C582.995 236.332 578.585 236.114 574.137 235.606C526.08 230.111 484.514 203.974 444.316 178.697C429.736 169.528 415.965 160.87 402.032 153.261C375.521 138.78 344.429 123.132 310.898 120.704C275.388 118.123 244.746 134.493 216.934 152.56C196.009 166.145 175.85 182.883 156.353 199.07C112.836 235.191 67.8454 272.542 7.37843 282.724L7.19569 281.596C67.3543 271.465 112.23 234.214 155.622 198.189C175.141 181.981 195.335 165.222 216.306 151.599C242.324 134.705 270.806 119.291 303.486 119.29Z" fill="#D5E0FE" fill-opacity="0.3"/>
<path d="M299.17 105.425C302.901 105.425 306.67 105.631 310.483 106.064C342.972 109.775 373.028 122.9 400.669 136.532C413.932 143.071 427.429 150.495 440.481 157.673C480.63 179.757 522.147 202.591 569.672 207.989C607.22 212.255 625.26 217.787 651.715 240.365C680.265 264.734 703.916 293.585 726.787 321.484C730.008 325.413 733.22 329.331 736.437 333.227C739.987 337.525 743.528 341.851 747.075 346.187C769.448 373.521 792.582 401.787 820.4 425.792C843.686 445.883 871.223 464.67 898.896 451.672C931.342 436.432 952.54 401.323 969.574 373.114C971.852 369.34 974.066 365.675 976.233 362.174C991.866 336.92 1006.54 310.74 1020.73 285.422C1032.24 264.895 1044.13 243.67 1056.48 223.052C1058.71 219.318 1061 215.42 1063.34 211.41C1081.57 180.247 1104.27 141.461 1139.64 123.31C1166.11 109.722 1206.31 116.805 1235.67 121.977L1236.98 122.209C1258.1 125.926 1279.02 130.922 1299.26 135.755C1343.94 146.426 1390.15 157.458 1439.12 154.553L1439.19 155.693C1390.05 158.611 1343.76 147.556 1298.99 136.867C1278.77 132.04 1257.87 127.048 1236.79 123.335L1235.47 123.104C1206.28 117.961 1166.29 110.915 1140.16 124.33C1105.08 142.328 1082.48 180.953 1064.33 211.99C1061.98 216.003 1059.7 219.904 1057.46 223.64C1045.12 244.244 1033.23 265.464 1021.73 285.983C1007.53 311.311 992.85 337.503 977.202 362.777C975.038 366.274 972.827 369.936 970.55 373.706C953.438 402.048 932.14 437.32 899.381 452.709C871.119 465.984 843.219 446.99 819.655 426.659C791.762 402.589 768.595 374.285 746.192 346.912C742.645 342.578 739.106 338.254 735.556 333.956C732.339 330.06 729.126 326.139 725.905 322.21C703.065 294.349 679.447 265.538 650.974 241.238C624.745 218.851 606.835 213.363 569.542 209.127C521.796 203.704 480.177 180.814 439.931 158.677C426.89 151.503 413.404 144.087 400.165 137.557C372.616 123.972 342.67 110.891 310.354 107.203C274.564 103.113 242.005 119.642 217.642 134.495C195.05 148.273 173.645 165.396 152.949 181.956C109.98 216.331 65.5609 251.878 6.00783 262.078L5.82509 260.949C65.0698 250.799 109.386 215.346 152.241 181.062C172.96 164.478 194.399 147.333 217.048 133.519C238.978 120.145 267.521 105.427 299.17 105.425Z" fill="#D5E0FE" fill-opacity="0.2"/>
<path d="M1188.3 88.4505C1209.75 88.4494 1231.64 93.1983 1245.94 96.3029C1266.28 100.717 1286.19 106.515 1305.44 112.121C1349.59 124.987 1391.31 137.136 1439.25 134.578L1439.31 135.719C1391.18 138.297 1349.37 126.113 1305.12 113.222C1285.89 107.619 1266 101.827 1245.7 97.4209C1222.59 92.4065 1179.58 83.0722 1151.05 96.6084C1115.68 113.394 1091.23 149.978 1071.59 179.374C1069.3 182.813 1067.05 186.173 1064.85 189.414C1051.8 208.625 1039.14 228.444 1026.9 247.61C1011.79 271.277 996.156 295.748 979.644 319.299C977.507 322.347 975.329 325.512 973.097 328.754C954.628 355.579 931.644 388.964 898.635 403.368C870.271 415.748 841.781 398.347 817.656 379.691C789.122 357.63 764.882 331.288 741.439 305.813C737.888 301.954 734.343 298.102 730.792 294.273C727.567 290.798 724.346 287.302 721.116 283.798C697.236 257.888 672.545 231.096 643.465 208.83C615.845 187.682 595.689 182.716 560.96 179.585C514.657 175.411 472.87 156.577 432.459 138.364C419.564 132.552 406.23 126.542 393.086 121.18C367.139 110.593 336.255 99.3789 303.899 96.4574C267.498 93.1629 235.688 108.528 212.034 122.273C189.624 135.296 168.505 151.351 148.072 166.877C106.017 198.837 62.5228 231.884 4.62587 241.391L4.44313 240.263C62.0546 230.8 105.434 197.84 147.375 165.965C167.843 150.418 188.996 134.341 211.463 121.282C233.05 108.739 261.399 94.8657 293.88 94.8623C297.214 94.8623 300.584 95.0087 304.002 95.3177C336.506 98.2517 367.492 109.503 393.517 120.12C406.68 125.49 420.023 131.504 432.927 137.32C473.253 155.495 514.951 174.289 561.063 178.445C596.019 181.596 616.313 186.6 644.159 207.92C673.317 230.248 698.043 257.076 721.955 283.021C725.183 286.525 728.405 290.019 731.628 293.496C735.181 297.324 738.726 301.177 742.278 305.038C765.688 330.477 789.897 356.782 818.354 378.786C860.874 411.662 882.568 409.132 898.178 402.319C930.889 388.045 953.772 354.81 972.156 328.104C974.39 324.86 976.571 321.691 978.71 318.642C995.206 295.111 1010.83 270.65 1025.94 246.994C1038.18 227.82 1050.85 207.995 1063.9 188.77C1066.11 185.53 1068.35 182.173 1070.64 178.738C1090.36 149.224 1114.9 112.495 1150.56 95.5739C1161.66 90.3055 1174.9 88.4505 1188.3 88.4505Z" fill="#D5E0FE" fill-opacity="0.3"/>
<path d="M1198.22 59.8618C1218.85 59.8618 1240.16 64.7321 1256.71 69.2133C1276.11 74.4691 1294.77 81.2081 1312.81 87.725C1353.83 102.536 1392.58 116.536 1439.39 114.561L1439.44 115.705C1392.4 117.669 1353.55 103.652 1312.43 88.8018C1294.4 82.2917 1275.77 75.5608 1256.41 70.3175C1230.36 63.2639 1192.48 55.2365 1164.28 66.9395C1128.62 81.7379 1103.24 114.117 1080.86 142.682C1078.46 145.749 1076.1 148.756 1073.78 151.672C1059.4 169.777 1045.45 188.548 1031.96 206.703C1016.22 227.888 999.938 249.796 982.865 270.784C980.894 273.207 978.892 275.696 976.85 278.234C955.619 304.629 931.555 334.548 897.917 347.506C868.807 358.716 839.756 343.403 815.179 326.94C785.86 307.304 760.363 283.291 735.706 260.068C732.161 256.729 728.622 253.396 725.08 250.083C721.863 247.074 718.645 244.048 715.421 241.015C690.326 217.411 664.375 193.003 634.542 173.194C605.663 154.018 584.47 149.824 550.615 148.102C505.843 145.825 463.797 131.709 423.134 118.059C410.509 113.82 397.455 109.438 384.564 105.498C328.831 88.4574 268.56 77.4296 205.489 111.804C183.388 123.853 162.612 138.637 142.532 152.935C101.54 182.118 59.1533 212.296 3.24379 220.664L3.0724 219.533C58.7079 211.205 100.991 181.108 141.87 152.001C161.984 137.684 182.783 122.881 204.952 110.798C235.254 94.2809 264.905 88.1794 293.711 88.1794C325.197 88.1771 355.666 95.4653 384.898 104.401C397.802 108.347 410.865 112.733 423.498 116.974C464.087 130.6 506.058 144.69 550.673 146.96C584.74 148.693 606.073 152.917 635.173 172.241C665.086 192.103 691.073 216.544 716.203 240.181C719.426 243.212 722.642 246.238 725.86 249.248C729.403 252.56 732.943 255.894 736.488 259.234C761.113 282.425 786.574 306.405 815.814 325.989C840.148 342.288 868.886 357.466 897.507 346.437C930.858 333.591 954.82 303.798 975.962 277.516C978.003 274.977 980.007 272.484 981.98 270.06C999.037 249.092 1015.31 227.195 1031.04 206.019C1044.54 187.858 1058.49 169.078 1072.89 150.959C1075.21 148.046 1077.56 145.041 1079.96 141.975C1102.43 113.298 1127.9 80.795 1163.84 65.8821C1174.35 61.5211 1186.17 59.8618 1198.22 59.8618Z" fill="#D5E0FE" fill-opacity="0.2"/>
<path d="M1209.32 30.2937C1226.67 30.2937 1246.45 34.0173 1268.47 41.4509C1286.82 47.6417 1304.08 55.4059 1320.78 62.9161C1358.31 79.7972 1393.77 95.7536 1439.53 94.5017L1439.56 95.6461C1393.53 96.8842 1357.97 80.8946 1320.31 63.9597C1303.64 56.461 1286.4 48.7082 1268.11 42.5345C1231.91 30.3166 1201.86 28.1756 1178.81 36.1675C1142.37 48.794 1114.56 78.6769 1090.02 105.041C1087.84 107.382 1085.69 109.688 1083.58 111.941C1068.29 128.231 1053.36 145.19 1038.93 161.59C1022.08 180.747 1004.65 200.557 986.517 219.424C984.887 221.122 983.236 222.848 981.566 224.596C958.227 249.021 931.776 276.705 897.213 287.96C841.398 306.133 778.643 253.363 737.117 218.441C730.542 212.911 724.332 207.689 718.837 203.332C715.653 200.806 712.467 198.266 709.276 195.722C682.831 174.641 655.485 152.843 624.823 135.712C594.404 118.717 572.149 115.571 539.278 115.5C495.876 115.407 453.486 106.461 412.493 97.8112C400.293 95.2365 387.677 92.5736 375.227 90.1866C317.81 79.1725 256.647 73.0206 198.419 102.314C176.672 113.251 156.318 126.633 136.639 139.577C96.7765 165.784 55.5554 192.885 1.85023 199.897L1.7018 198.761C55.1442 191.784 96.2511 164.756 136.01 138.62C155.724 125.659 176.101 112.257 197.905 101.291C256.442 71.8442 317.826 78.0098 375.442 89.0617C387.901 91.4522 400.522 94.115 412.728 96.6909C453.666 105.329 495.997 114.262 539.279 114.356C571.614 114.426 594.912 117.692 625.378 134.713C656.124 151.891 683.506 173.718 709.988 194.827C713.178 197.37 716.362 199.908 719.548 202.435C725.054 206.802 731.27 212.029 737.851 217.565C779.184 252.324 841.647 304.852 896.86 286.87C931.149 275.706 957.496 248.132 980.741 223.805C982.412 222.056 984.062 220.328 985.694 218.631C1003.81 199.781 1021.23 179.982 1038.08 160.834C1052.51 144.426 1067.44 127.459 1082.75 111.157C1084.86 108.905 1087 106.601 1089.18 104.26C1113.81 77.7981 1141.73 47.8053 1178.43 35.085C1187.65 31.8901 1197.97 30.2949 1209.32 30.2937Z" fill="#D5E0FE" fill-opacity="0.2"/>
<path d="M1220.75 0.408466C1243.23 0.408464 1264.61 6.94142 1280.44 13.5213C1297.66 20.6779 1313.45 29.4961 1328.72 38.0236C1362.68 56.985 1394.71 74.928 1439.67 74.4028L1439.69 75.5471C1394.41 76.0666 1362.26 58.0607 1328.17 39.0226C1312.93 30.5111 1297.17 21.7112 1280.01 14.5786C1257.95 5.4126 1225.06 -3.66647 1193.59 5.12995C1156.29 15.5616 1125.86 42.8137 1099.02 66.8583C1097.17 68.5107 1095.35 70.1471 1093.54 71.7571C1077.34 86.1996 1061.43 101.315 1046.04 115.934C1028.05 133.025 1009.45 150.7 990.252 167.416L987.008 170.243C961.335 192.643 932.238 218.028 896.512 227.57C838.776 242.987 776.974 200.314 731.849 169.154C725.006 164.431 718.544 159.968 712.48 155.967C709.354 153.903 706.225 151.83 703.093 149.753C675.235 131.287 646.427 112.194 614.924 97.77C586.592 84.799 563.774 80.8271 527.71 82.5997C485.378 84.6789 442.769 81.1613 401.561 77.7592C389.816 76.7888 377.669 75.7875 365.702 74.9281C306.692 70.6896 244.609 68.5966 191.2 93.0336C169.876 102.792 149.945 114.724 130.665 126.264C90.1405 150.52 51.8662 173.43 0.445328 179.082L0.319718 177.945C51.4893 172.321 89.6609 149.472 130.083 125.281C149.385 113.727 169.339 101.777 190.732 91.9923C244.38 67.4431 306.624 69.5384 365.784 73.7849C377.757 74.6455 389.906 75.6479 401.655 76.6183C442.827 80.0169 485.4 83.5277 527.654 81.4576C563.916 79.6748 586.879 83.6707 615.399 96.7286C646.982 111.191 675.827 130.309 703.724 148.799C706.856 150.876 709.982 152.947 713.109 155.01C719.181 159.019 725.649 163.484 732.496 168.212C777.44 199.244 838.99 241.749 896.217 226.463C931.688 216.99 960.679 191.699 986.257 169.382L989.502 166.553C1008.68 149.853 1027.27 132.188 1045.25 115.103C1060.65 100.48 1076.56 85.3574 1092.78 70.9012C1094.59 69.2923 1096.41 67.657 1098.26 66.0058C1125.2 41.8777 1155.73 14.5306 1193.29 4.02911C1202.42 1.47384 1211.68 0.408467 1220.75 0.408466Z" fill="#D5E0FE" fill-opacity="0.2"/>
</svg>
