<svg width="1440" height="557" viewBox="0 0 1440 557" fill="none" xmlns="http://www.w3.org/2000/svg">
<path d="M2.32809 185.359L2.07019 184.244C46.1239 174.007 59.6497 143.581 73.9698 111.367C79.9176 97.9886 86.0675 84.1537 94.5861 71.9723C110.735 48.8844 132.987 37.0979 157.234 38.7629C191.999 41.1637 227.168 49.7931 261.178 58.1375C267.036 59.5736 272.851 61.0005 278.614 62.3829C302.948 68.2189 327.7 74.7096 351.636 80.9862C410.943 96.5387 472.267 112.62 534.178 120.664C551.303 122.891 568.957 121.231 586.031 119.628C596.021 118.689 606.352 117.718 616.492 117.53C640.905 117.082 665.669 118.371 689.62 119.622L696.309 119.971C754.719 122.99 807.273 124.549 858.965 113.018C915.665 100.371 970.328 79.0271 1023.19 58.3846C1043.97 50.2714 1065.46 41.8812 1086.64 34.1971C1091.79 32.3284 1096.96 30.4139 1102.16 28.4914C1159.29 7.34662 1218.37 -14.5191 1277.55 12.7467C1292.56 19.663 1305.82 27.3929 1318.63 34.8699C1348.28 52.1618 1376.28 68.4936 1419.18 70.1414L1419.13 71.2857C1375.96 69.6276 1347.83 53.2249 1318.06 35.8586C1305.26 28.3965 1292.03 20.6791 1277.07 13.7857C1218.33 -13.2821 1159.47 8.50125 1102.55 29.5648C1097.36 31.4873 1092.18 33.4029 1087.03 35.2716C1065.86 42.9523 1044.38 51.3402 1023.61 59.4523C970.702 80.1085 915.999 101.468 859.213 114.135C807.382 125.698 754.744 124.138 696.25 121.113L689.561 120.765C665.629 119.514 640.88 118.225 616.514 118.675C606.416 118.861 596.107 119.83 586.137 120.766C569.002 122.376 551.286 124.043 534.031 121.8C472.049 113.746 410.688 97.6556 351.347 82.0939C327.415 75.8184 302.67 69.329 278.349 63.4952C272.583 62.1129 266.766 60.6859 260.908 59.2475C226.943 50.9156 191.823 42.3 157.156 39.9049C124.995 37.6827 104.736 59.4546 95.5213 72.6303C87.066 84.7201 80.9389 98.5035 75.0134 111.831C61.209 142.884 46.9359 174.994 2.32809 185.359Z" fill="#D5E0FE" fill-opacity="0.3"/>
<path d="M2.44499 206.013L1.70349 202.66C43.6602 193.337 60.5635 167.356 78.4596 139.85C86.0818 128.136 93.9624 116.022 104.009 104.874C117.265 90.1625 139.234 72.7859 168.601 73.5309C196.483 74.2381 225.054 77.9949 252.683 81.6293C263.109 83.0002 273.891 84.418 284.372 85.6333C310.267 88.636 336.576 91.8367 362.02 94.9321C416.779 101.593 473.404 108.483 529.292 113.807C544.156 115.221 558.993 114.526 573.341 113.851C585.811 113.268 598.704 112.66 611.74 113.412C638.572 114.962 665.214 120.021 690.978 124.912L696.928 126.041C748.922 135.871 800.357 143.748 857.909 132.289C912.646 121.39 966.575 104.639 1018.73 88.4403C1038.06 82.4383 1058.04 76.2303 1077.73 70.4275C1083.86 68.6217 1089.98 66.7748 1096.08 64.929C1151.72 48.1269 1209.26 30.7492 1269.53 48.2894C1286.11 53.1138 1301.57 58.7931 1316.52 64.287C1349.62 76.4523 1380.88 87.9414 1420.55 89.2139L1420.45 92.6446C1380.23 91.356 1348.71 79.7732 1315.33 67.5094C1300.44 62.0373 1285.04 56.3763 1268.58 51.5862C1209.28 34.3343 1154.78 50.7932 1097.07 68.2155C1090.96 70.0625 1084.83 71.9128 1078.7 73.7208C1059.03 79.5168 1039.06 85.7202 1019.74 91.7199C967.505 107.945 913.489 124.722 858.576 135.656C800.47 147.228 746.545 138.916 696.293 129.414L690.34 128.285C664.683 123.414 638.153 118.377 611.542 116.84C598.688 116.1 585.883 116.701 573.501 117.281C559.034 117.96 544.075 118.664 528.967 117.223C473.035 111.896 416.388 105.004 361.606 98.341C336.168 95.2444 309.864 92.0438 283.978 89.0433C273.472 87.8258 262.676 86.4057 252.236 85.0336C224.695 81.4107 196.217 77.6653 168.515 76.9616C140.453 76.2395 119.327 92.9981 106.552 107.173C96.6863 118.122 88.8797 130.121 81.3303 141.725C63.0415 169.835 45.7674 196.386 2.44499 206.013Z" fill="#D5E0FE" fill-opacity="0.2"/>
<path d="M2.05726 224.478L1.84619 223.353C42.9485 215.606 64.5887 193.907 87.4992 170.935C97.1283 161.28 107.084 151.298 118.845 141.95C155.494 112.82 205.469 113.249 253.805 113.657C268.307 113.781 283.3 113.908 297.48 113.197C319.224 112.104 341.359 110.757 362.766 109.456C417.437 106.13 473.964 102.7 529.617 103.123C537.578 103.182 545.643 102.99 553.441 102.803C572.543 102.342 592.294 101.867 611.714 105.165C638.682 109.749 664.514 118.901 689.496 127.751C692.022 128.646 694.547 129.54 697.067 130.428C749.833 149.019 798.416 163.626 858.703 153.993C911.767 145.518 965.086 134.308 1016.65 123.467C1034.88 119.636 1053.72 115.673 1072.28 111.89C1076.93 110.942 1081.56 109.99 1086.16 109.042C1145.27 96.8706 1201.09 85.3758 1262.6 92.7624C1279.33 94.7696 1295.96 97.2882 1312.04 99.7234C1349.05 105.326 1384 110.617 1421.84 110.625V111.77C1383.92 111.762 1347.29 106.217 1311.88 100.856C1295.8 98.4211 1279.17 95.9048 1262.46 93.8976C1201.14 86.535 1145.4 98.0103 1086.39 110.163C1081.78 111.112 1077.16 112.064 1072.51 113.012C1053.96 116.793 1035.11 120.755 1016.88 124.587C965.307 135.432 911.975 146.643 858.883 155.125C798.335 164.794 749.604 150.151 696.688 131.508C694.167 130.62 691.643 129.725 689.116 128.83C664.18 119.995 638.394 110.861 611.523 106.294C592.211 103.01 572.515 103.487 553.468 103.946C545.661 104.135 537.584 104.325 529.608 104.267C474 103.838 417.489 107.274 362.835 110.597C341.425 111.899 319.286 113.246 297.536 114.339C283.324 115.054 268.313 114.926 253.796 114.801C205.658 114.397 155.888 113.968 119.554 142.846C107.846 152.153 97.9131 162.112 88.3072 171.744C65.2687 194.844 43.5071 216.665 2.05726 224.478Z" fill="#D5E0FE" fill-opacity="0.3"/>
<path d="M1.91218 244.101L1.75159 242.969C41.8446 237.274 69.1119 220.271 97.9795 202.271C109.575 195.04 121.566 187.563 134.741 180.604C157.055 168.818 180.824 162.064 207.403 159.957C244.333 157.029 279.728 148.735 312.476 140.21C333.058 134.848 354.022 128.749 374.297 122.851C424.764 108.168 476.95 92.9868 530.183 86.9928C594.532 79.7469 640.069 100.751 697.373 131.214C754.936 161.813 797.29 181.388 859.193 174.892C906.147 169.967 953.971 165.564 1000.22 161.305C1021.64 159.334 1043.78 157.294 1065.55 155.23C1172.58 145.083 1286.22 137.366 1423.16 130.944L1423.21 132.086C1286.29 138.508 1172.67 146.224 1065.66 156.37C1043.89 158.434 1021.74 160.472 1000.33 162.445C954.08 166.703 906.258 171.105 859.312 176.029C792.44 183.051 743.838 157.21 696.839 132.224C639.716 101.859 594.334 80.921 530.309 88.1314C477.174 94.1128 425.037 109.281 374.616 123.95C354.333 129.851 333.36 135.953 312.763 141.316C279.965 149.856 244.511 158.164 207.495 161.097C181.072 163.192 157.448 169.905 135.274 181.617C122.134 188.556 110.162 196.023 98.5832 203.241C69.6094 221.308 42.2431 238.373 1.91218 244.101Z" fill="#D5E0FE" fill-opacity="0.3"/>
<path d="M1.76678 263.767L1.66101 262.627C41.6131 258.903 75.0071 246.975 110.362 234.346C123.605 229.616 137.298 224.725 151.421 220.273C171.988 213.79 192.103 210.89 213.399 207.819C218.558 207.076 223.893 206.306 229.208 205.485C264.943 199.968 298.553 182.721 328.207 167.504C347.047 157.837 366.199 146.842 384.721 136.21C430.72 109.805 478.283 82.5013 530.799 69.0715C591.432 53.5659 641.489 90.0664 685.652 122.27C689.716 125.233 693.715 128.148 697.651 130.969L700.318 132.88C749.611 168.226 792.204 198.776 859.654 195.951C907.458 193.973 956.147 195.953 1003.23 197.872C1021.33 198.61 1040.04 199.372 1058.42 199.895C1128.44 201.894 1187.25 200.598 1246.7 187.769C1264.5 183.926 1282.3 179.608 1299.5 175.432C1339.68 165.68 1381.23 155.597 1424.48 151.306L1424.59 152.446C1381.42 156.728 1339.91 166.801 1299.77 176.543C1282.56 180.722 1264.77 185.041 1246.94 188.887C1187.37 201.74 1128.49 203.039 1058.38 201.041C1040 200.515 1021.29 199.753 1003.19 199.015C956.123 197.097 907.46 195.112 859.7 197.095C791.85 199.912 749.119 169.279 699.653 133.812L696.986 131.899C693.048 129.078 689.047 126.16 684.981 123.195C641.02 91.1398 591.2 54.8086 531.082 70.1803C478.716 83.5712 431.221 110.835 385.288 137.202C366.755 147.841 347.592 158.843 328.728 168.522C298.997 183.779 265.299 201.07 229.382 206.616C224.061 207.437 218.722 208.208 213.561 208.953C192.313 212.015 172.243 214.91 151.762 221.364C137.661 225.81 123.978 230.698 110.746 235.423C75.3212 248.078 41.8621 260.029 1.76678 263.767Z" fill="#D5E0FE" fill-opacity="0.1"/>
<path d="M1.62403 283.47L1.56738 282.328C43.0301 280.254 83.7639 273.434 123.158 266.84C137.724 264.401 152.786 261.88 167.756 259.615C179.123 257.896 191.17 257.065 202.82 256.261C218.842 255.154 235.41 254.011 250.555 250.546C284.056 242.885 312.726 219.733 338.022 199.307C339.922 197.773 341.8 196.256 343.653 194.769C360.685 181.096 377.102 166.104 394.484 150.234C435.889 112.428 478.704 73.3341 531.395 51.8711C588.571 28.5795 645.709 82.269 683.52 117.799C688.643 122.612 693.482 127.16 697.919 131.142C700.677 133.618 703.433 136.106 706.193 138.597C728.627 158.851 751.823 179.794 778.886 196.158C806.226 212.689 829.377 216.325 860.127 217.019C907.149 218.082 954.153 226.733 999.611 235.098C1016.61 238.227 1034.18 241.461 1051.42 244.23C1145.34 259.321 1192.71 252.139 1238.68 235.662C1258.04 228.723 1276.93 220.865 1295.18 213.264C1337.82 195.524 1378.08 178.768 1425.8 171.712L1425.97 172.845C1378.39 179.878 1338.19 196.61 1295.63 214.322C1277.35 221.926 1258.45 229.791 1239.07 236.74C1176.82 259.049 1121.05 256.579 1051.24 245.359C1033.99 242.589 1016.41 239.352 999.404 236.224C953.99 227.866 907.031 219.224 860.101 218.163C829.159 217.465 805.854 213.8 778.296 197.136C751.141 180.717 727.902 159.737 705.428 139.446C702.67 136.956 699.915 134.47 697.158 131.994C692.71 128.003 687.866 123.452 682.739 118.633C645.141 83.3057 588.319 29.9218 531.824 52.9308C479.323 74.3171 436.585 113.341 395.253 151.079C377.857 166.963 361.427 181.967 344.366 195.662C342.515 197.149 340.638 198.663 338.739 200.198C313.347 220.702 284.568 243.941 250.81 251.662C235.577 255.146 218.963 256.293 202.897 257.402C191.271 258.204 179.248 259.035 167.927 260.746C152.965 263.009 137.908 265.53 123.346 267.968C83.921 274.568 43.1529 281.393 1.62403 283.47Z" fill="#D5E0FE" fill-opacity="0.3"/>
<path d="M1144.74 307.121C1143.34 307.121 1141.94 307.096 1140.54 307.046C1106.66 305.847 1072.35 295.771 1044.78 287.674C1028.51 282.896 1011.9 277.392 995.835 272.071C952.27 257.639 907.222 242.717 860.572 239.08C828.367 236.567 805.801 231.483 778.826 211.837C751.387 191.855 728.527 167.346 706.422 143.644C703.403 140.408 700.391 137.178 697.372 133.965C693.531 129.877 689.124 124.878 684.02 119.088C666.338 99.0287 642.122 71.5581 615.382 52.7557C583.502 30.3395 556.371 25.8057 532.44 38.9002C499.844 56.7368 474.65 85.7569 452.423 111.361L448.499 115.879C434.844 131.566 421.468 147.819 408.531 163.537C392.489 183.027 375.901 203.181 358.631 222.446C356.253 225.1 353.804 227.878 351.283 230.743C330.065 254.835 303.659 284.821 270.224 294.446C252.124 299.656 229.815 299.127 208.243 298.615C199.185 298.399 190.629 298.197 182.662 298.428C172.781 298.716 162.902 299.008 153.023 299.299C103.366 300.764 52.0173 302.28 1.48668 303.211L1.46521 302.066C51.9896 301.136 103.335 299.621 152.989 298.155C162.869 297.863 172.749 297.571 182.628 297.284C190.625 297.053 199.197 297.257 208.269 297.471C229.759 297.981 251.977 298.506 269.909 293.346C303.023 283.813 329.307 253.968 350.427 229.985C352.951 227.12 355.401 224.337 357.781 221.682C375.035 202.433 391.615 182.29 407.649 162.809C420.591 147.086 433.974 130.826 447.638 115.126L451.561 110.61C473.852 84.9341 499.117 55.8305 531.891 37.8966C555.904 24.7563 584.215 29.4401 616.038 51.8185C642.888 70.6999 667.156 98.2289 684.876 118.33C689.973 124.112 694.376 129.106 698.204 133.181C701.223 136.394 704.237 139.626 707.256 142.863C729.325 166.526 752.145 190.994 779.497 210.912C806.254 230.397 828.664 235.443 860.661 237.94C907.45 241.586 952.563 256.533 996.193 270.985C1012.25 276.303 1028.85 281.804 1045.1 286.576C1072.61 294.654 1106.84 304.709 1140.58 305.902C1172.73 307.028 1203.25 294.76 1231.45 281.321C1251.83 271.608 1271.4 260.506 1290.34 249.769C1331.92 226.195 1374.9 201.819 1427.14 192.155L1427.34 193.279C1375.3 202.909 1334.3 226.155 1290.9 250.765C1271.95 261.511 1252.35 272.624 1231.94 282.353C1204.84 295.269 1175.59 307.118 1144.74 307.121Z" fill="#D5E0FE" fill-opacity="0.3"/>
<path d="M1139.35 353.426C1137.25 353.427 1135.15 353.361 1133.04 353.227C1098.86 351.048 1064.59 336.761 1039.57 326.329C1024.24 319.936 1008.51 312.506 993.308 305.321C951.406 285.522 908.077 265.047 861.173 259.685C827.639 255.853 805.782 249.904 779.391 228.033C751.699 205.085 729.143 177.602 707.33 151.026C704.103 147.093 700.882 143.169 697.652 139.268C694.435 135.382 690.435 130.185 685.802 124.168C669.347 102.794 644.479 70.4916 617.035 48.0698C584.406 21.4116 556.077 15.5343 532.835 30.6131C500.842 51.3643 478.665 84.3574 459.097 113.466C457.248 116.218 455.416 118.941 453.596 121.627C441.004 140.21 428.796 159.382 416.989 177.921C402.133 201.255 386.77 225.382 370.485 248.58C368.112 251.958 365.66 255.557 363.065 259.37C343.97 287.41 320.206 322.306 286.075 333.179C266.194 339.512 238.871 336.965 214.766 334.717C207.669 334.056 200.966 333.431 194.854 333.073C176.062 331.974 157.007 330.62 138.579 329.309C93.716 326.121 47.3017 322.83 1.35446 322.986L1.35046 321.841C47.3521 321.692 93.775 324.978 138.66 328.168C157.084 329.478 176.135 330.832 194.921 331.931C201.052 332.29 207.764 332.916 214.872 333.579C238.869 335.817 266.069 338.352 285.729 332.089C319.484 321.335 343.125 286.62 362.12 258.726C364.719 254.91 367.173 251.305 369.55 247.92C385.821 224.745 401.177 200.629 416.027 177.306C427.837 158.759 440.05 139.58 452.652 120.983C454.47 118.3 456.301 115.577 458.15 112.827C477.778 83.6262 500.025 50.5312 532.215 29.6519C555.922 14.2779 584.702 20.1757 617.757 47.1818C645.303 69.6883 670.218 102.053 686.707 123.469C691.332 129.478 695.327 134.668 698.53 138.537C701.762 142.44 704.984 146.365 708.213 150.298C729.991 176.834 752.512 204.272 780.118 227.151C806.445 248.968 827.273 254.659 861.303 258.549C908.393 263.932 951.809 284.446 993.796 304.286C1008.99 311.466 1024.7 318.89 1040.01 325.272C1064.96 335.674 1099.13 349.918 1133.11 352.085C1167.16 354.261 1198.71 338.144 1225.61 322.874C1246.56 310.986 1266.58 297.15 1285.94 283.768C1328.41 254.42 1372.33 224.071 1428.49 212.629L1428.72 213.752C1372.78 225.146 1328.97 255.427 1286.59 284.712C1267.21 298.106 1247.17 311.957 1226.17 323.87C1200.79 338.276 1171.28 353.426 1139.35 353.426Z" fill="#D5E0FE" fill-opacity="0.2"/>
<path d="M1134.98 391.794C1132.73 391.794 1130.46 391.714 1128.18 391.55C1095.64 389.204 1064.88 374.515 1036.16 359.669C1021.71 352.2 1007.44 343.727 992.326 334.755C951.599 310.579 909.486 285.58 861.964 279.826C857.677 279.308 853.41 279.041 849.281 278.783C839.612 278.177 830.479 277.606 821.15 274.062C804.72 267.82 791.813 256.958 780.003 246.366C752.07 221.319 729.784 191.63 708.233 162.918C704.826 158.379 701.428 153.852 698.016 149.355C695.169 145.598 691.462 140.311 687.168 134.189C671.01 111.145 646.591 76.3208 618.783 51.3082C585.523 21.3886 556.635 14.4208 532.919 30.589C500.513 52.6859 480.327 88.961 462.517 120.968C460.601 124.409 458.717 127.797 456.848 131.109C445.704 150.864 434.972 171.193 424.593 190.853C410.139 218.233 395.192 246.546 378.89 273.767C376.574 277.636 374.156 281.858 371.597 286.327C354.966 315.367 332.189 355.139 296.816 366.074C274.811 372.878 243.648 368.677 218.608 365.303C213.217 364.576 208.125 363.889 203.393 363.345C183.867 361.094 164.158 358.321 145.098 355.64C98.3344 349.062 49.9841 342.255 1.22924 342.794L1.21667 341.65C50.0412 341.09 98.4522 347.923 145.258 354.507C164.309 357.187 184.01 359.959 203.523 362.206C208.267 362.755 213.364 363.44 218.76 364.168C243.689 367.527 274.716 371.711 296.48 364.981C331.422 354.179 354.07 314.632 370.606 285.757C373.169 281.283 375.589 277.057 377.911 273.18C394.196 245.983 409.136 217.685 423.583 190.317C433.966 170.651 444.701 150.315 455.853 130.546C457.721 127.235 459.605 123.849 461.518 120.41C479.391 88.2938 499.648 51.8917 532.277 29.6438C556.482 13.1415 585.844 20.1424 619.546 50.4567C647.451 75.5564 671.914 110.446 688.102 133.532C692.389 139.644 696.091 144.923 698.926 148.662C702.339 153.162 705.739 157.691 709.146 162.23C730.665 190.897 752.915 220.542 780.765 245.514C792.496 256.033 805.307 266.82 821.556 272.993C830.723 276.475 839.771 277.041 849.353 277.64C853.497 277.899 857.782 278.168 862.099 278.691C909.861 284.473 952.079 309.534 992.908 333.771C1008.01 342.733 1022.27 351.199 1036.69 358.653C1065.3 373.443 1095.94 388.078 1128.26 390.408C1161.96 392.833 1193.14 376.487 1221.8 358.456C1242.89 345.184 1263.12 329.294 1282.68 313.927C1325.93 279.933 1370.67 244.781 1429.86 233.136L1430.09 234.258C1371.16 245.851 1326.54 280.917 1283.38 314.828C1263.8 330.212 1243.56 346.122 1222.4 359.427C1195.52 376.346 1166.4 391.792 1134.98 391.794Z" fill="#D5E0FE" fill-opacity="0.3"/>
<path d="M1132.64 420.871C1130.69 420.871 1128.72 420.819 1126.73 420.711C1092.12 418.833 1061 402.345 1034.54 387.038C1020.84 379.11 1007.14 369.844 992.64 360.037C952.467 332.867 910.926 304.773 862.897 300.486C858.316 300.076 853.753 300.028 849.341 299.981C840.277 299.885 830.903 299.786 821.514 296.469C804.908 290.606 791.849 279.349 779.897 268.322C751.633 242.246 729.595 211.285 708.282 181.342C704.708 176.321 701.144 171.315 697.563 166.345C694.705 162.382 691.018 156.817 686.75 150.373C655.739 103.567 591.207 6.17026 533.229 42.3767C500.236 62.978 480.568 102.398 464.766 134.071C462.715 138.182 460.714 142.192 458.743 146.051C448.096 166.893 437.947 188.343 428.134 209.088C414.222 238.492 399.837 268.898 383.767 298.139C381.758 301.794 379.656 305.792 377.432 310.023C361.289 340.734 339.179 382.793 301.161 392.412C275.148 398.997 241.608 394.077 214.66 390.129C212.018 389.741 209.435 389.362 206.925 389.004C186.966 386.156 166.868 382.502 147.43 378.969C100.052 370.356 51.0642 361.453 1.16626 363.774L1.00647 360.346C51.2864 358 100.475 366.945 148.042 375.592C167.448 379.119 187.514 382.766 207.407 385.605C209.922 385.965 212.509 386.343 215.155 386.731C241.805 390.637 274.968 395.496 300.322 389.084C336.859 379.84 358.557 338.562 374.401 308.423C376.632 304.176 378.74 300.165 380.765 296.483C396.785 267.333 411.147 236.976 425.037 207.618C434.862 186.85 445.022 165.374 455.692 144.487C457.659 140.636 459.654 136.637 461.7 132.537C477.696 100.477 497.603 60.5772 531.416 39.4621C592.22 1.5014 657.996 100.767 689.605 148.475C693.853 154.889 697.523 160.426 700.341 164.335C703.926 169.31 707.494 174.323 711.072 179.35C732.283 209.149 754.215 239.963 782.219 265.797C793.908 276.582 806.66 287.585 822.654 293.231C831.507 296.357 840.188 296.451 849.378 296.549C853.856 296.595 858.487 296.646 863.199 297.065C912.111 301.432 954.024 329.777 994.558 357.191C1009.01 366.965 1022.66 376.197 1036.26 384.065C1062.37 399.174 1093.06 415.446 1126.92 417.282C1163.05 419.24 1194.26 402.191 1219.99 385.246C1240.7 371.614 1259.94 355.295 1280.3 338.017C1324.3 300.684 1369.79 262.079 1431.08 252.538L1431.6 255.929C1371.28 265.322 1326.15 303.61 1282.51 340.638C1262.07 357.984 1242.76 374.368 1221.88 388.116C1197.07 404.443 1167.26 420.871 1132.64 420.871Z" fill="#D5E0FE" fill-opacity="0.3"/>
<path d="M1136.51 437.71C1134.04 437.71 1131.54 437.621 1129.02 437.44C1095.26 434.994 1064.04 419.281 1037.42 404.744C1023.46 397.117 1009.67 388.45 995.077 379.272C954.987 354.063 913.533 327.997 865.734 322.531C861.323 322.027 856.932 321.81 852.685 321.6C843.097 321.126 834.041 320.677 824.773 317.197C808.465 311.073 795.444 300.061 783.505 289.307C755.276 263.886 732.688 233.81 710.844 204.725C707.273 199.971 703.71 195.226 700.132 190.513C697.225 186.684 693.412 181.232 688.998 174.919C656.72 128.761 589.555 32.7105 533.575 69.3644C500.767 90.8468 481.111 127.894 463.769 160.583C461.7 164.482 459.672 168.304 457.667 172.01C446.703 192.287 436.182 213.148 426.006 233.321C411.601 261.883 396.704 291.417 380.294 319.804C378.103 323.594 375.824 327.71 373.412 332.069C356.993 361.731 334.507 402.356 297.981 412.958C271.661 420.595 236.952 415.05 209.061 410.593L204.22 409.822C184.536 406.709 164.815 402.714 145.745 398.851C99.1178 389.404 50.9023 379.641 1.00251 382.518L0.936035 381.376C50.983 378.481 99.2726 388.269 145.97 397.728C165.03 401.591 184.738 405.583 204.398 408.691L209.24 409.462C237.02 413.901 271.593 419.426 297.663 411.859C333.737 401.389 356.091 361.002 372.413 331.514C374.828 327.15 377.108 323.03 379.306 319.23C395.699 290.873 410.588 261.352 424.987 232.805C435.166 212.625 445.69 191.756 456.663 171.466C458.666 167.761 460.693 163.942 462.76 160.045C480.167 127.236 499.896 90.0492 532.95 68.4055C589.852 31.1474 657.448 127.809 689.933 174.263C694.341 180.566 698.147 186.009 701.041 189.821C704.621 194.534 708.184 199.281 711.758 204.038C733.569 233.078 756.123 263.109 784.268 288.456C796.126 299.137 809.053 310.072 825.175 316.128C834.275 319.543 843.244 319.988 852.742 320.456C857.005 320.668 861.415 320.886 865.863 321.394C913.92 326.889 955.486 353.026 995.684 378.303C1010.26 387.472 1024.04 396.13 1037.97 403.739C1064.48 418.22 1095.57 433.868 1129.1 436.297C1164.61 438.877 1195.25 422.507 1223.07 404.44C1243.99 390.855 1264.15 374.117 1283.65 357.93C1327.16 321.809 1372.15 284.459 1432.62 274.276L1432.8 275.405C1372.65 285.535 1327.77 322.786 1284.38 358.811C1264.86 375.019 1244.66 391.778 1223.69 405.401C1197.68 422.295 1169.19 437.709 1136.51 437.71Z" fill="#D5E0FE" fill-opacity="0.2"/>
<path d="M1140.83 451.575C1137.1 451.575 1133.33 451.37 1129.52 450.936C1097.03 447.225 1066.97 434.1 1039.33 420.468C1026.07 413.929 1012.57 406.505 999.519 399.327C959.369 377.244 917.852 354.409 870.328 349.011C832.78 344.745 814.74 339.213 788.285 316.635C759.735 292.266 736.084 263.416 713.213 235.516C709.992 231.587 706.78 227.669 703.563 223.773C700.013 219.475 696.472 215.149 692.925 210.813C670.552 183.479 647.418 155.213 619.6 131.208C596.314 111.117 568.777 92.3298 541.104 105.328C508.658 120.568 487.46 155.677 470.426 183.886C468.148 187.66 465.934 191.325 463.767 194.826C448.134 220.08 433.46 246.26 419.268 271.578C407.763 292.105 395.865 313.33 383.52 333.948C381.285 337.682 379.004 341.58 376.659 345.59C358.425 376.753 335.733 415.539 300.364 433.69C273.885 447.278 233.686 440.195 204.333 435.023L203.015 434.791C181.901 431.074 160.977 426.078 140.742 421.245C96.0567 410.574 49.8462 399.542 0.881199 402.447L0.813354 401.307C49.9529 398.389 96.2413 409.444 141.006 420.133C161.225 424.96 182.133 429.952 203.213 433.665L204.531 433.896C233.724 439.039 273.706 446.085 299.844 432.67C334.916 414.672 357.515 376.047 375.674 345.01C378.021 340.997 380.304 337.096 382.54 333.36C394.878 312.756 406.77 291.536 418.272 271.017C432.469 245.689 447.15 219.498 462.798 194.223C464.962 190.726 467.173 187.064 469.45 183.295C486.562 154.952 507.86 119.68 540.619 104.291C568.881 91.0161 596.781 110.01 620.345 130.341C648.238 154.411 671.405 182.715 693.808 210.088C697.355 214.422 700.894 218.746 704.443 223.044C707.661 226.94 710.874 230.861 714.095 234.79C736.935 262.651 760.553 291.462 789.026 315.763C815.255 338.149 833.165 343.637 870.458 347.873C918.204 353.296 959.823 376.186 1000.07 398.323C1013.11 405.497 1026.6 412.913 1039.83 419.443C1067.38 433.029 1097.33 446.109 1129.65 449.797C1165.44 453.887 1198 437.359 1222.36 422.505C1244.95 408.727 1266.35 391.604 1287.05 375.044C1330.02 340.669 1374.44 305.123 1433.99 294.922L1434.17 296.052C1374.93 306.201 1330.61 341.654 1287.76 375.938C1267.04 392.522 1245.6 409.667 1222.95 423.482C1201.02 436.855 1172.48 451.573 1140.83 451.575Z" fill="#D5E0FE" fill-opacity="0.3"/>
<path d="M251.697 468.549C230.246 468.551 208.363 463.802 194.057 460.697C173.716 456.283 153.812 450.485 134.565 444.879C90.4052 432.013 48.6884 419.864 0.74998 422.422L0.689331 421.281C48.8246 418.703 90.6287 430.887 134.883 443.778C154.113 449.381 173.997 455.173 194.299 459.579C217.409 464.594 260.423 473.928 288.95 460.392C324.325 443.606 348.767 407.022 368.407 377.626C370.704 374.187 372.948 370.827 375.15 367.586C388.202 348.375 400.859 328.556 413.099 309.39C428.215 285.723 443.844 261.252 460.356 237.701C462.493 234.653 464.671 231.488 466.903 228.246C485.372 201.421 508.356 168.036 541.365 153.633C569.729 141.252 598.219 158.653 622.344 177.309C650.878 199.37 675.118 225.712 698.561 251.187C702.112 255.046 705.656 258.898 709.207 262.727C712.433 266.202 715.654 269.698 718.884 273.202C742.763 299.112 767.455 325.904 796.535 348.17C824.155 369.318 844.311 374.284 879.04 377.415C925.343 381.589 967.129 400.423 1007.54 418.636C1020.44 424.448 1033.77 430.458 1046.91 435.821C1072.86 446.407 1103.75 457.621 1136.1 460.543C1172.5 463.837 1204.31 448.472 1227.97 434.727C1250.38 421.704 1271.49 405.649 1291.93 390.123C1333.98 358.163 1377.48 325.117 1435.37 315.609L1435.56 316.737C1377.95 326.2 1334.57 359.16 1292.62 391.035C1272.16 406.582 1251 422.659 1228.54 435.718C1206.95 448.261 1178.6 462.134 1146.12 462.138C1142.79 462.138 1139.42 461.991 1136 461.682C1103.49 458.748 1072.51 447.497 1046.48 436.88C1033.32 431.51 1019.98 425.497 1007.07 419.68C966.747 401.505 925.049 382.711 878.937 378.555C843.981 375.404 823.687 370.401 795.84 349.08C766.683 326.753 741.957 299.924 718.044 273.979C714.817 270.475 711.595 266.981 708.371 263.504C704.819 259.676 701.274 255.823 697.722 251.962C674.312 226.523 650.103 200.218 621.646 178.214C579.126 145.338 557.432 147.869 541.821 154.681C509.111 168.955 486.228 202.19 467.844 228.896C465.61 232.14 463.429 235.309 461.29 238.358C444.794 261.889 429.171 286.35 414.062 310.007C401.817 329.18 389.155 349.005 376.095 368.23C373.894 371.47 371.652 374.827 369.356 378.262C349.639 407.776 325.099 444.505 289.439 461.426C278.335 466.695 265.098 468.549 251.697 468.549Z" fill="#D5E0FE" fill-opacity="0.2"/>
<path d="M241.783 497.138C221.145 497.138 199.841 492.268 183.293 487.787C163.892 482.531 145.231 475.792 127.185 469.275C86.1702 454.464 47.4231 440.464 0.612074 442.439L0.564331 441.295C47.5979 439.331 86.4485 453.348 127.573 468.198C145.597 474.708 164.235 481.439 183.591 486.682C209.635 493.736 247.521 501.764 275.72 490.061C311.384 475.262 336.755 442.883 359.139 414.318C361.544 411.251 363.9 408.244 366.216 405.328C380.6 387.223 394.549 368.452 408.038 350.297C423.782 329.112 440.061 307.204 457.135 286.216C459.106 283.793 461.108 281.304 463.149 278.766C484.381 252.371 508.445 222.452 542.083 209.494C571.193 198.284 600.244 213.597 624.821 230.06C654.14 249.696 679.637 273.709 704.294 296.932C707.839 300.271 711.378 303.604 714.92 306.917C718.137 309.927 721.355 312.952 724.579 315.985C749.674 339.589 775.625 363.997 805.458 383.807C834.337 402.982 855.53 407.176 889.385 408.898C934.157 411.175 976.203 425.291 1016.87 438.941C1029.49 443.18 1042.55 447.562 1055.44 451.502C1111.17 468.543 1171.44 479.571 1234.51 445.196C1256.61 433.148 1277.39 418.363 1297.47 404.066C1338.46 374.882 1380.85 344.704 1436.76 336.336L1436.93 337.467C1381.29 345.795 1339.01 375.892 1298.13 404.999C1278.02 419.316 1257.22 434.119 1235.05 446.202C1204.75 462.719 1175.09 468.821 1146.29 468.821C1114.8 468.823 1084.33 461.535 1055.1 452.599C1042.2 448.653 1029.13 444.267 1016.5 440.026C975.913 426.4 933.942 412.311 889.327 410.04C855.26 408.308 833.927 404.083 804.827 384.76C774.914 364.897 748.927 340.456 723.797 316.819C720.573 313.788 717.358 310.762 714.139 307.752C710.596 304.44 707.057 301.106 703.512 297.766C678.887 274.575 653.426 250.595 624.186 231.012C599.852 214.712 571.114 199.534 542.493 210.563C509.142 223.409 485.18 253.202 464.038 279.484C461.997 282.023 459.992 284.516 458.02 286.94C440.963 307.908 424.691 329.805 408.955 350.981C395.459 369.142 381.505 387.922 367.109 406.041C364.794 408.954 362.44 411.959 360.038 415.025C337.567 443.702 312.097 476.205 276.158 491.118C265.646 495.479 253.827 497.138 241.783 497.138Z" fill="#D5E0FE" fill-opacity="0.3"/>
<path d="M230.676 526.706C213.329 526.706 193.552 522.983 171.526 515.549C153.182 509.358 135.919 501.594 119.224 494.084C81.6879 477.203 46.2269 461.246 0.470634 462.498L0.439453 461.354C46.4697 460.116 82.0337 476.105 119.692 493.04C136.361 500.539 153.599 508.292 171.891 514.465C208.091 526.683 238.136 528.824 261.194 520.832C297.629 508.206 325.443 478.323 349.982 451.959C352.162 449.618 354.307 447.312 356.423 445.059C371.715 428.769 386.637 411.81 401.067 395.41C417.923 376.253 435.352 356.443 453.483 337.576C455.113 335.878 456.763 334.152 458.433 332.404C481.773 307.979 508.224 280.295 542.786 269.04C598.601 250.867 661.357 303.637 702.883 338.559C709.458 344.089 715.668 349.311 721.163 353.668C724.347 356.194 727.533 358.734 730.724 361.278C757.169 382.359 784.515 404.157 815.176 421.288C845.596 438.283 867.851 441.429 900.722 441.5C944.124 441.594 986.513 450.539 1027.51 459.189C1039.71 461.764 1052.32 464.426 1064.77 466.814C1122.19 477.828 1183.35 483.98 1241.58 454.686C1263.33 443.749 1283.68 430.367 1303.36 417.423C1343.22 391.216 1384.44 364.115 1438.15 357.103L1438.3 358.239C1384.86 365.216 1343.75 392.244 1303.99 418.38C1284.28 431.342 1263.9 444.743 1242.09 455.709C1183.56 485.156 1122.17 478.99 1064.56 467.938C1052.1 465.548 1039.48 462.885 1027.27 460.309C986.334 451.671 944.003 442.738 900.721 442.644C868.386 442.574 845.088 439.309 814.621 422.287C783.876 405.109 756.494 383.282 730.012 362.173C726.822 359.63 723.638 357.092 720.452 354.565C714.946 350.198 708.73 344.971 702.149 339.435C660.816 304.676 598.352 252.148 543.139 270.13C508.851 281.294 482.504 308.868 459.259 333.195C457.588 334.944 455.938 336.672 454.306 338.369C436.193 357.219 418.772 377.018 401.924 396.166C387.487 412.574 372.559 429.541 357.255 445.843C355.141 448.095 352.996 450.399 350.817 452.74C326.188 479.202 298.27 509.195 261.568 521.915C252.349 525.11 242.032 526.705 230.676 526.706Z" fill="#D5E0FE" fill-opacity="0.3"/>
<path d="M219.251 556.592C196.771 556.592 175.388 550.059 159.556 543.479C142.335 536.322 126.546 527.504 111.278 518.976C77.3228 500.015 45.2941 482.072 0.326079 482.597L0.314087 481.453C45.5871 480.933 77.7434 498.939 111.833 517.977C127.074 526.489 142.834 535.289 159.994 542.421C182.049 551.587 214.943 560.666 246.408 551.87C283.708 541.438 314.135 514.186 340.982 490.142C342.828 488.489 344.653 486.853 346.46 485.243C362.663 470.8 378.573 455.685 393.96 441.066C411.95 423.975 430.554 406.301 449.748 389.584L452.992 386.757C478.665 364.357 507.762 338.972 543.488 329.431C601.224 314.013 663.026 356.686 708.151 387.846C714.994 392.57 721.456 397.032 727.52 401.033C730.646 403.097 733.775 405.17 736.906 407.247C764.765 425.713 793.573 444.806 825.076 459.23C853.407 472.201 876.226 476.173 912.29 474.4C954.621 472.321 997.23 475.839 1038.44 479.241C1050.18 480.211 1062.33 481.213 1074.3 482.072C1133.31 486.311 1195.39 488.404 1248.8 463.966C1270.12 454.208 1290.05 442.276 1309.33 430.736C1349.86 406.48 1388.13 383.57 1439.55 377.918L1439.68 379.055C1388.51 384.68 1350.34 407.528 1309.92 431.719C1290.61 443.273 1270.66 455.223 1249.27 465.008C1195.62 489.557 1133.38 487.462 1074.22 483.215C1062.24 482.355 1050.09 481.352 1038.35 480.382C997.173 476.983 954.6 473.472 912.346 475.542C876.084 477.325 853.121 473.329 824.601 460.271C793.018 445.809 764.173 426.691 736.276 408.201C733.144 406.124 730.018 404.053 726.891 401.99C720.819 397.981 714.351 393.516 707.503 388.788C662.56 357.756 601.01 315.251 543.783 330.537C508.312 340.01 479.32 365.302 453.742 387.618L450.498 390.447C431.323 407.147 412.728 424.812 394.746 441.897C379.352 456.52 363.436 471.643 347.22 486.099C345.414 487.708 343.587 489.343 341.743 490.994C314.805 515.122 284.271 542.469 246.714 552.971C237.577 555.526 228.325 556.592 219.251 556.592Z" fill="#D5E0FE" fill-opacity="0.3"/>
</svg>
