<svg width="38" height="38" viewBox="0 0 38 38" fill="none" xmlns="http://www.w3.org/2000/svg">
<path d="M30.5685 22.0447H33.003C33.003 28.0944 28.0975 33 22.0477 33V30.5655C26.7585 30.5655 30.5685 26.7555 30.5685 22.0447ZM22.0477 25.6964V28.131C25.4073 28.131 28.134 25.4043 28.134 22.0447H25.6995C25.6995 24.0653 24.0684 25.6964 22.0477 25.6964ZM27.2332 5.72123L31.5423 10.0303C32.4918 10.9798 32.4918 12.5257 31.5423 13.4752L27.6714 17.346C26.722 18.2955 25.1761 18.2955 24.2266 17.346L22.7172 15.8366L21.853 16.6887L23.3624 18.1981C24.3118 19.1476 24.3118 20.6935 23.3624 21.643L21.646 23.3593C20.6966 24.3088 19.1506 24.3088 18.2012 23.3593L16.6918 21.8499L15.8275 22.7142L17.3369 24.2236C18.2864 25.173 18.2864 26.7189 17.3369 27.6684L13.466 31.5393C12.5166 32.4887 10.9707 32.4887 10.0212 31.5393L5.7121 27.2302C4.76263 26.2807 4.76263 24.7348 5.7121 23.7853L9.58298 19.9145C10.5324 18.965 12.0784 18.965 13.0278 19.9145L14.5372 21.4239L15.4015 20.5596L13.8921 19.0624C12.9426 18.1129 12.9426 16.567 13.8921 15.6175L15.6206 13.889C16.57 12.9396 18.116 12.9396 19.0654 13.889L20.5748 15.3984L21.4391 14.5342L19.9175 13.037C18.968 12.0875 18.968 10.5416 19.9175 9.59211L23.7884 5.72123C24.75 4.75959 26.2838 4.75959 27.2332 5.72123ZM8.7309 24.2236L7.4406 25.5139L11.7497 29.823L13.04 28.5327L8.7309 24.2236ZM11.3115 21.643L10.0212 22.9333L14.3303 27.2424L15.6206 25.9521L11.3115 21.643ZM17.3369 15.6175L15.6206 17.3339L19.9297 21.643L21.646 19.9266L17.3369 15.6175ZM22.9363 10.0181L21.646 11.3084L25.9551 15.6175L27.2454 14.3272L22.9363 10.0181ZM25.5169 7.43756L24.2266 8.72786L28.5357 13.037L29.826 11.7467L25.5169 7.43756Z" fill="#747474"/>
</svg>
