<svg width="38" height="38" viewBox="0 0 38 38" fill="none" xmlns="http://www.w3.org/2000/svg">
<path d="M31.6666 26.9166V17.4166C31.6666 15.675 30.2416 14.25 28.4999 14.25H11.0833V11.0833L6.33325 15.8333L11.0833 20.5833V17.4166H17.4166V22.1666H6.33325V26.9166C6.33325 28.6583 7.75825 30.0833 9.49992 30.0833H12.6666C12.6666 32.7116 14.7883 34.8333 17.4166 34.8333C20.0449 34.8333 22.1666 32.7116 22.1666 30.0833H34.8333V26.9166H31.6666ZM17.4166 31.6666C16.5458 31.6666 15.8333 30.9541 15.8333 30.0833C15.8333 29.2125 16.5458 28.5 17.4166 28.5C18.2874 28.5 18.9999 29.2125 18.9999 30.0833C18.9999 30.9541 18.2874 31.6666 17.4166 31.6666ZM28.4999 22.1666H22.1666V17.4166H28.4999V22.1666ZM26.9166 3.16663V6.33329H14.2499V9.49996H26.9166V12.6666L31.6666 7.91663L26.9166 3.16663Z" fill="#747474"/>
</svg>
