<svg width="38" height="38" viewBox="0 0 38 38" fill="none" xmlns="http://www.w3.org/2000/svg">
<path d="M17.4165 15.5642V22.1667H20.5832V15.5642L23.1007 18.0658L25.3332 15.8333L18.9998 9.5L12.6665 15.8333L14.899 18.0658L17.4165 15.5642Z" fill="#747474"/>
<path d="M30.0833 4.75H7.91667C6.175 4.75 4.75 6.175 4.75 7.91667V30.0833C4.75 31.825 6.175 33.25 7.91667 33.25H30.0833C31.825 33.25 33.25 31.825 33.25 30.0833V7.91667C33.25 6.175 31.825 4.75 30.0833 4.75ZM30.0833 30.0833H7.91667V25.3333H12.6983C14.1392 27.2492 16.4192 28.5 19 28.5C21.5808 28.5 23.845 27.2492 25.3017 25.3333H30.0833V30.0833ZM30.0833 22.1667H23.465C22.8158 24.0033 21.0742 25.3333 19 25.3333C16.9258 25.3333 15.2 24.0033 14.535 22.1667H7.91667V7.91667H30.0833V22.1667Z" fill="#747474"/>
<path d="M30.0833 30.0833H7.91667V25.3333H12.6983C14.1392 27.2492 16.4192 28.5 19 28.5C21.5808 28.5 23.845 27.2492 25.3017 25.3333H30.0833V30.0833Z" fill="#747474"/>
</svg>
