<svg width="38" height="38" viewBox="0 0 38 38" fill="none" xmlns="http://www.w3.org/2000/svg">
<path fill-rule="evenodd" clip-rule="evenodd" d="M18.9998 31.6668C12.0015 31.6668 6.33317 25.9984 6.33317 19.0001C6.33317 12.0017 12.0015 6.33342 18.9998 6.33342C25.9982 6.33342 31.6665 12.0017 31.6665 19.0001C31.6665 25.9984 25.9982 31.6668 18.9998 31.6668ZM17.4165 11.0834H19.7915V19.3959L26.9165 23.6234L25.729 25.5709L17.4165 20.5834V11.0834Z" fill="#747474"/>
<path fill-rule="evenodd" clip-rule="evenodd" d="M3.1665 19.0001C3.1665 10.2601 10.244 3.16675 18.984 3.16675C27.7398 3.16675 34.8332 10.2601 34.8332 19.0001C34.8332 27.7401 27.7398 34.8334 18.984 34.8334C10.244 34.8334 3.1665 27.7401 3.1665 19.0001ZM6.33317 19.0001C6.33317 25.9984 12.0015 31.6668 18.9998 31.6668C25.9982 31.6668 31.6665 25.9984 31.6665 19.0001C31.6665 12.0017 25.9982 6.33342 18.9998 6.33342C12.0015 6.33342 6.33317 12.0017 6.33317 19.0001Z" fill="#747474"/>
</svg>
