<svg width="60" height="60" viewBox="0 0 60 60" fill="none" xmlns="http://www.w3.org/2000/svg">
<rect width="60" height="60" rx="2" fill="#262626"/>
<path fill-rule="evenodd" clip-rule="evenodd" d="M33.57 29.29L32.17 31.71C32.08 31.86 31.9 31.92 31.74 31.86L30 31.16C29.64 31.44 29.24 31.67 28.82 31.85L28.56 33.7C28.53 33.87 28.38 34 28.21 34H25.41C25.24 34 25.09 33.87 25.06 33.71L24.8 31.86C24.37 31.68 23.98 31.45 23.62 31.17L21.88 31.87C21.72 31.93 21.54 31.87 21.45 31.72L20.05 29.3C19.96 29.15 20 28.96 20.13 28.85L21.61 27.69C21.58 27.46 21.56 27.23 21.56 27C21.56 26.77 21.58 26.54 21.61 26.32L20.13 25.16C20 25.05 19.96 24.86 20.05 24.71L21.45 22.29C21.54 22.14 21.72 22.08 21.88 22.14L23.62 22.84C23.98 22.56 24.38 22.33 24.8 22.15L25.06 20.3C25.09 20.13 25.24 20 25.41 20H28.21C28.38 20 28.53 20.13 28.56 20.29L28.82 22.14C29.25 22.32 29.64 22.55 30 22.83L31.74 22.13C31.9 22.07 32.08 22.13 32.17 22.28L33.57 24.7C33.66 24.85 33.62 25.04 33.49 25.15L32.01 26.31C32.04 26.54 32.06 26.77 32.06 27C32.06 27.23 32.04 27.46 32.01 27.68L33.49 28.84C33.62 28.95 33.66 29.14 33.57 29.29ZM24.81 27C24.81 28.1 25.71 29 26.81 29C27.91 29 28.81 28.1 28.81 27C28.81 25.9 27.91 25 26.81 25C25.71 25 24.81 25.9 24.81 27ZM38.96 35.93L39.92 36.67C40 36.74 40.03 36.86 39.97 36.95L39.07 38.5C39.01 38.6 38.89 38.64 38.79 38.6L37.67 38.15C37.45 38.33 37.19 38.47 36.92 38.59L36.75 39.77C36.74 39.88 36.64 39.96 36.53 39.96H34.74C34.63 39.96 34.54 39.88 34.52 39.77L34.35 38.59C34.07 38.48 33.82 38.33 33.59 38.15L32.48 38.6C32.37 38.63 32.25 38.6 32.2 38.5L31.3 36.95C31.24 36.85 31.27 36.73 31.35 36.66L32.3 35.92C32.28 35.78 32.27 35.63 32.27 35.48C32.27 35.33 32.28 35.18 32.3 35.04L31.35 34.3C31.26 34.23 31.25 34.11 31.3 34.01L32.2 32.46C32.26 32.36 32.38 32.32 32.48 32.36L33.59 32.81C33.82 32.63 34.08 32.49 34.35 32.37L34.52 31.19C34.53 31.08 34.63 31 34.74 31H36.53C36.63 31 36.73 31.08 36.74 31.2L36.91 32.38C37.19 32.49 37.44 32.64 37.67 32.82L38.78 32.37C38.89 32.34 39.01 32.37 39.06 32.47L39.96 34.02C40.02 34.12 39.99 34.24 39.91 34.31L38.96 35.05C38.99 35.19 39 35.34 39 35.49C39 35.64 38.98 35.79 38.96 35.93ZM34.28 35.48C34.28 36.23 34.89 36.83 35.63 36.83C36.37 36.83 36.98 36.23 36.98 35.48C36.98 34.73 36.38 34.13 35.63 34.13C34.88 34.13 34.28 34.73 34.28 35.48Z" fill="#747474"/>
</svg>
