<svg width="38" height="38" viewBox="0 0 38 38" fill="none" xmlns="http://www.w3.org/2000/svg">
<path d="M19.0002 3.16663L6.3335 7.91663V17.5591C6.3335 25.555 11.7327 33.0125 19.0002 34.8333C26.2677 33.0125 31.6668 25.555 31.6668 17.5591V7.91663L19.0002 3.16663ZM28.5002 17.5591C28.5002 23.8925 24.4627 29.7508 19.0002 31.54C13.5377 29.7508 9.50016 23.9083 9.50016 17.5591V10.1175L19.0002 6.55496L28.5002 10.1175V17.5591Z" fill="#747474"/>
<path d="M28.5002 17.5591C28.5002 23.8925 24.4627 29.7508 19.0002 31.54C13.5377 29.7508 9.50016 23.9083 9.50016 17.5591V10.1175L19.0002 6.55496L28.5002 10.1175V17.5591Z" fill="#747474"/>
</svg>
