<svg width="16" height="16" viewBox="0 0 16 16" fill="none" xmlns="http://www.w3.org/2000/svg">
<path d="M1.33472 8.0012C1.33549 11.2808 3.72032 14.0732 6.95938 14.5872V9.92787H5.26805V8.0012H6.96138V6.53453C6.88568 5.83956 7.12306 5.14693 7.60914 4.64449C8.09522 4.14205 8.77962 3.88188 9.47672 3.93453C9.97707 3.94261 10.4762 3.98718 10.97 4.06787V5.7072H10.1274C9.83728 5.6692 9.54562 5.76502 9.33456 5.96765C9.12351 6.17027 9.0159 6.45779 9.04205 6.7492V8.0012H10.8894L10.594 9.92853H9.04205V14.5872C12.545 14.0336 15.0014 10.8344 14.6317 7.30725C14.262 3.78011 11.1956 1.15982 7.65393 1.34465C4.11229 1.52949 1.33528 4.45474 1.33472 8.0012Z" fill="#3958FC"/>
</svg>
