<svg width="60" height="60" viewBox="0 0 60 60" fill="none" xmlns="http://www.w3.org/2000/svg">
<rect width="60" height="60" rx="2" fill="#262626"/>
<path d="M37.4301 30.98C37.4701 30.66 37.5001 30.34 37.5001 30C37.5001 29.66 37.4701 29.34 37.4301 29.02L39.5401 27.37C39.7301 27.22 39.7801 26.95 39.6601 26.73L37.6601 23.27C37.5701 23.11 37.4001 23.02 37.2201 23.02C37.1601 23.02 37.1001 23.03 37.0501 23.05L34.5601 24.05C34.0401 23.65 33.4801 23.32 32.8701 23.07L32.4901 20.42C32.4601 20.18 32.2501 20 32.0001 20H28.0001C27.7501 20 27.5401 20.18 27.5101 20.42L27.1301 23.07C26.5201 23.32 25.9601 23.66 25.4401 24.05L22.9501 23.05C22.8901 23.03 22.8301 23.02 22.7701 23.02C22.6001 23.02 22.4301 23.11 22.3401 23.27L20.3401 26.73C20.2101 26.95 20.2701 27.22 20.4601 27.37L22.5701 29.02C22.5301 29.34 22.5001 29.67 22.5001 30C22.5001 30.33 22.5301 30.66 22.5701 30.98L20.4601 32.63C20.2701 32.78 20.2201 33.05 20.3401 33.27L22.3401 36.73C22.4301 36.89 22.6001 36.98 22.7801 36.98C22.8401 36.98 22.9001 36.97 22.9501 36.95L25.4401 35.95C25.9601 36.35 26.5201 36.68 27.1301 36.93L27.5101 39.58C27.5401 39.82 27.7501 40 28.0001 40H32.0001C32.2501 40 32.4601 39.82 32.4901 39.58L32.8701 36.93C33.4801 36.68 34.0401 36.34 34.5601 35.95L37.0501 36.95C37.1101 36.97 37.1701 36.98 37.2301 36.98C37.4001 36.98 37.5701 36.89 37.6601 36.73L39.6601 33.27C39.7801 33.05 39.7301 32.78 39.5401 32.63L37.4301 30.98ZM35.4501 29.27C35.4901 29.58 35.5001 29.79 35.5001 30C35.5001 30.21 35.4801 30.43 35.4501 30.73L35.3101 31.86L36.2001 32.56L37.2801 33.4L36.5801 34.61L35.3101 34.1L34.2701 33.68L33.3701 34.36C32.9401 34.68 32.5301 34.92 32.1201 35.09L31.0601 35.52L30.9001 36.65L30.7001 38H29.3001L29.1101 36.65L28.9501 35.52L27.8901 35.09C27.4601 34.91 27.0601 34.68 26.6601 34.38L25.7501 33.68L24.6901 34.11L23.4201 34.62L22.7201 33.41L23.8001 32.57L24.6901 31.87L24.5501 30.74C24.5201 30.43 24.5001 30.2 24.5001 30C24.5001 29.8 24.5201 29.57 24.5501 29.27L24.6901 28.14L23.8001 27.44L22.7201 26.6L23.4201 25.39L24.6901 25.9L25.7301 26.32L26.6301 25.64C27.0601 25.32 27.4701 25.08 27.8801 24.91L28.9401 24.48L29.1001 23.35L29.3001 22H30.6901L30.8801 23.35L31.0401 24.48L32.1001 24.91C32.5301 25.09 32.9301 25.32 33.3301 25.62L34.2401 26.32L35.3001 25.89L36.5701 25.38L37.2701 26.59L36.2001 27.44L35.3101 28.14L35.4501 29.27ZM30.0001 26C27.7901 26 26.0001 27.79 26.0001 30C26.0001 32.21 27.7901 34 30.0001 34C32.2101 34 34.0001 32.21 34.0001 30C34.0001 27.79 32.2101 26 30.0001 26ZM30.0001 32C28.9001 32 28.0001 31.1 28.0001 30C28.0001 28.9 28.9001 28 30.0001 28C31.1001 28 32.0001 28.9 32.0001 30C32.0001 31.1 31.1001 32 30.0001 32Z" fill="#747474"/>
<path fill-rule="evenodd" clip-rule="evenodd" d="M35.4501 29.27C35.4901 29.58 35.5001 29.79 35.5001 30C35.5001 30.21 35.4801 30.43 35.4501 30.73L35.3101 31.86L36.2001 32.56L37.2801 33.4L36.5801 34.61L35.3101 34.1L34.2701 33.68L33.3701 34.36C32.9401 34.68 32.5301 34.92 32.1201 35.09L31.0601 35.52L30.9001 36.65L30.7001 38H29.3001L29.1101 36.65L28.9501 35.52L27.8901 35.09C27.4601 34.91 27.0601 34.68 26.6601 34.38L25.7501 33.68L24.6901 34.11L23.4201 34.62L22.7201 33.41L23.8001 32.57L24.6901 31.87L24.5501 30.74C24.5201 30.43 24.5001 30.2 24.5001 30C24.5001 29.8 24.5201 29.57 24.5501 29.27L24.6901 28.14L23.8001 27.44L22.7201 26.6L23.4201 25.39L24.6901 25.9L25.7301 26.32L26.6301 25.64C27.0601 25.32 27.4701 25.08 27.8801 24.91L28.9401 24.48L29.1001 23.35L29.3001 22H30.6901L30.8801 23.35L31.0401 24.48L32.1001 24.91C32.5301 25.09 32.9301 25.32 33.3301 25.62L34.2401 26.32L35.3001 25.89L36.5701 25.38L37.2701 26.59L36.2001 27.44L35.3101 28.14L35.4501 29.27ZM26.0001 30C26.0001 27.79 27.7901 26 30.0001 26C32.2101 26 34.0001 27.79 34.0001 30C34.0001 32.21 32.2101 34 30.0001 34C27.7901 34 26.0001 32.21 26.0001 30Z" fill="#747474"/>
</svg>
