<svg width="38" height="38" viewBox="0 0 38 38" fill="none" xmlns="http://www.w3.org/2000/svg">
<path fill-rule="evenodd" clip-rule="evenodd" d="M25.3332 9.49996H31.6665C33.4082 9.49996 34.8332 10.925 34.8332 12.6666V31.6666C34.8332 33.4083 33.4082 34.8333 31.6665 34.8333H6.33317C4.5915 34.8333 3.1665 33.4083 3.1665 31.6666V12.6666C3.1665 10.925 4.5915 9.49996 6.33317 9.49996H12.6665V6.33329C12.6665 4.59163 14.0915 3.16663 15.8332 3.16663H22.1665C23.9082 3.16663 25.3332 4.59163 25.3332 6.33329V9.49996ZM22.1665 6.33329H15.8332V9.49996H22.1665V6.33329ZM17.4165 15.8333H20.5832V20.5833H25.3332V23.7499H20.5832V28.4999H17.4165V23.7499H12.6665V20.5833H17.4165V15.8333Z" fill="#747474"/>
</svg>
