<svg width="60" height="60" viewBox="0 0 60 60" fill="none" xmlns="http://www.w3.org/2000/svg">
<rect width="60" height="60" rx="2" fill="#262626"/>
<path d="M26 26H24V33C24 34.1 24.9 35 26 35H35V33H26V26Z" fill="#747474"/>
<path d="M38 21H30C28.9 21 28 21.9 28 23V29C28 30.1 28.9 31 30 31H38C39.1 31 40 30.1 40 29V23C40 21.9 39.1 21 38 21ZM38 29H30V25H38V29Z" fill="#747474"/>
<path d="M38 29H30V25H38V29Z" fill="#747474"/>
<path d="M22 30H20V37C20 38.1 20.9 39 22 39H31V37H22V30Z" fill="#747474"/>
</svg>
