<svg width="38" height="38" viewBox="0 0 38 38" fill="none" xmlns="http://www.w3.org/2000/svg">
<path fill-rule="evenodd" clip-rule="evenodd" d="M12.3333 7H32.3333C33.8 7 35 8.2 35 9.66667V28.3333C35 29.8 33.8 31 32.3333 31H12.4267C11.5067 31 10.6933 30.52 10.2133 29.8133L3 19L10.2133 8.17333C10.6933 7.46667 11.4133 7 12.3333 7ZM17 19C17 20.1046 16.1046 21 15 21C13.8954 21 13 20.1046 13 19C13 17.8954 13.8954 17 15 17C16.1046 17 17 17.8954 17 19ZM21.6666 21C22.7712 21 23.6666 20.1046 23.6666 19C23.6666 17.8954 22.7712 17 21.6666 17C20.5621 17 19.6666 17.8954 19.6666 19C19.6666 20.1046 20.5621 21 21.6666 21ZM30.3334 19C30.3334 20.1046 29.4379 21 28.3334 21C27.2288 21 26.3334 20.1046 26.3334 19C26.3334 17.8954 27.2288 17 28.3334 17C29.4379 17 30.3334 17.8954 30.3334 19Z" fill="#747474"/>
</svg>
