<svg width="60" height="60" viewBox="0 0 60 60" fill="none" xmlns="http://www.w3.org/2000/svg">
<rect width="60" height="60" rx="2" fill="#262626"/>
<path fill-rule="evenodd" clip-rule="evenodd" d="M26.0288 22H38.9475C39.8949 22 40.67 22.7751 40.67 23.7225V35.78C40.67 36.7274 39.8949 37.5025 38.9475 37.5025H26.089C25.4948 37.5025 24.9694 37.1925 24.6594 36.736L20 29.7513L24.6594 22.7579C24.9694 22.3014 25.4345 22 26.0288 22ZM29.0431 29.7513C29.0431 30.4647 28.4647 31.0431 27.7513 31.0431C27.0378 31.0431 26.4594 30.4647 26.4594 29.7513C26.4594 29.0378 27.0378 28.4594 27.7513 28.4594C28.4647 28.4594 29.0431 29.0378 29.0431 29.7513ZM32.0575 31.0431C32.771 31.0431 33.3494 30.4647 33.3494 29.7513C33.3494 29.0378 32.771 28.4594 32.0575 28.4594C31.344 28.4594 30.7656 29.0378 30.7656 29.7513C30.7656 30.4647 31.344 31.0431 32.0575 31.0431ZM37.6556 29.7513C37.6556 30.4647 37.0773 31.0431 36.3638 31.0431C35.6503 31.0431 35.0719 30.4647 35.0719 29.7513C35.0719 29.0378 35.6503 28.4594 36.3638 28.4594C37.0773 28.4594 37.6556 29.0378 37.6556 29.7513Z" fill="#747474"/>
</svg>
