<svg width="38" height="38" viewBox="0 0 38 38" fill="none" xmlns="http://www.w3.org/2000/svg">
<path d="M34.7698 17.765C34.1523 11.0992 28.1198 6.33337 21.4698 6.33337C21.169 6.33337 20.8682 6.34921 20.5673 6.36504C3.1665 7.50504 3.1665 27.2334 3.1665 27.2334V28.5C3.1665 30.2417 4.5915 31.6667 6.33317 31.6667H22.1665C29.5607 31.6667 35.4823 25.3175 34.7698 17.765ZM8.32817 18.3034C9.23067 16.2609 10.3548 14.5825 11.7165 13.2525L17.4482 15.675C18.3982 16.0709 18.9998 16.9892 18.9998 18.0184C18.9998 19.4275 17.8598 20.5675 16.4507 20.5675H7.47317C7.71067 19.8392 7.97984 19.0792 8.32817 18.3034ZM29.1965 25.3967C27.3915 27.3759 24.8265 28.5 22.1665 28.5H6.33317V27.2334C6.33317 27.2017 6.349 25.7767 6.71317 23.75H16.4507C19.6015 23.75 22.1665 21.185 22.1665 18.0342C22.1665 15.7384 20.789 13.6642 18.6832 12.7775L14.7248 11.0992C16.4665 10.1967 18.4773 9.67421 20.7732 9.53171C21.0107 9.50004 21.2482 9.50004 21.4698 9.50004C26.7107 9.50004 31.1757 13.2525 31.619 18.0659C31.8723 20.7892 31.0173 23.3859 29.1965 25.3967Z" fill="#747474"/>
<path d="M29.1965 25.3967C27.3915 27.3759 24.8265 28.5 22.1665 28.5H6.33317V27.2334C6.33317 27.2017 6.349 25.7767 6.71317 23.75H16.4507C19.6015 23.75 22.1665 21.185 22.1665 18.0342C22.1665 15.7384 20.789 13.6642 18.6832 12.7775L14.7248 11.0992C16.4665 10.1967 18.4773 9.67421 20.7732 9.53171C21.0107 9.50004 21.2482 9.50004 21.4698 9.50004C26.7107 9.50004 31.1757 13.2525 31.619 18.0659C31.8723 20.7892 31.0173 23.3859 29.1965 25.3967Z" fill="#747474"/>
</svg>
