<svg width="60" height="60" viewBox="0 0 60 60" fill="none" xmlns="http://www.w3.org/2000/svg">
<rect width="60" height="60" rx="2" fill="#262626"/>
<path fill-rule="evenodd" clip-rule="evenodd" d="M24.2929 23.2929C24 23.5858 24 24.0572 24 25L22 25V27H19V32H22V34H24.0254C24.0573 34.325 24.1296 34.5438 24.2929 34.7071C24.5288 34.943 24.8805 34.9889 25.5011 34.9978L24 38H28L29 37H33L34 38H38L36.4989 34.9978C37.1195 34.9889 37.4712 34.943 37.7071 34.7071C37.8704 34.5438 37.9427 34.325 37.9746 34H40V25H38C38 24.0572 38 23.5858 37.7071 23.2929C37.4142 23 36.9428 23 36 23H26C25.0572 23 24.5858 23 24.2929 23.2929ZM35 29.6H27V28.4H35V29.6ZM35 32H27V30.8H35V32ZM27 27.2V26H35V27.2H27Z" fill="#747474"/>
</svg>
