<svg width="60" height="60" viewBox="0 0 60 60" fill="none" xmlns="http://www.w3.org/2000/svg">
<rect width="60" height="60" rx="2" fill="#262626"/>
<path d="M35 34.9899C33.65 34.9899 32.8 35.4099 32.05 35.7899C31.4 36.1199 30.87 36.3899 30 36.3899C29.1 36.3899 28.6 36.1399 27.95 35.7899C27.2 35.4099 26.38 34.9899 25 34.9899C23.62 34.9899 22.8 35.4099 22.05 35.7899C21.4 36.1199 20.88 36.3899 20 36.3899V38.3399C21.35 38.3399 22.2 37.9199 22.95 37.5399C23.6 37.2099 24.12 36.9399 25 36.9399C25.88 36.9399 26.4 37.1899 27.05 37.5399C27.8 37.9199 28.62 38.3399 30 38.3399C31.38 38.3399 32.2 37.9199 32.95 37.5399C33.6 37.2099 34.13 36.9399 35 36.9399C35.9 36.9399 36.4 37.1899 37.05 37.5399C37.8 37.9199 38.63 38.3399 40 38.3399V36.3899C39.1 36.3899 38.6 36.1399 37.95 35.7899C37.2 35.4099 36.35 34.9899 35 34.9899ZM35 30.5399C33.65 30.5399 32.8 30.9699 32.05 31.3399C31.4 31.6599 30.87 31.9399 30 31.9399C29.1 31.9399 28.6 31.6899 27.95 31.3399C27.2 30.9599 26.38 30.5399 25 30.5399C23.62 30.5399 22.8 30.9699 22.05 31.3399C21.4 31.6599 20.88 31.9399 20 31.9399V33.8899C21.35 33.8899 22.2 33.4599 22.95 33.0899C23.6 32.7399 24.1 32.4899 25 32.4899C25.9 32.4899 26.4 32.7399 27.05 33.0899C27.8 33.4699 28.62 33.8899 30 33.8899C31.38 33.8899 32.2 33.4599 32.95 33.0899C33.6 32.7399 34.1 32.4899 35 32.4899C35.9 32.4899 36.4 32.7399 37.05 33.0899C37.8 33.4699 38.63 33.8899 40 33.8899V31.9399C39.1 31.9399 38.6 31.6899 37.95 31.3399C37.2 30.9599 36.35 30.5399 35 30.5399ZM37.95 22.4599C37.2 22.0799 36.37 21.6599 35 21.6599C33.63 21.6599 32.8 22.0799 32.05 22.4599C31.4 22.7799 30.87 23.0599 30 23.0599C29.1 23.0599 28.6 22.8099 27.95 22.4599C27.2 22.0899 26.38 21.6599 25 21.6599C23.62 21.6599 22.8 22.0799 22.05 22.4599C21.4 22.7899 20.88 23.0599 20 23.0599V24.9899C21.35 24.9899 22.2 24.5599 22.95 24.1899C23.6 23.8599 24.12 23.5899 25 23.5899C25.88 23.5899 26.4 23.8399 27.05 24.1899C27.8 24.5699 28.62 24.9899 30 24.9899C31.38 24.9899 32.2 24.5599 32.95 24.1899C33.6 23.8699 34.13 23.5899 35 23.5899C35.9 23.5899 36.4 23.8399 37.05 24.1899C37.8 24.5699 38.63 24.9899 40 24.9899V23.0399C39.1 23.0399 38.6 22.7899 37.95 22.4599ZM35 26.0899C33.65 26.0899 32.8 26.5199 32.05 26.8899C31.4 27.2399 30.9 27.4899 30 27.4899C29.1 27.4899 28.6 27.2399 27.95 26.8899C27.2 26.5099 26.38 26.0899 25 26.0899C23.62 26.0899 22.8 26.5199 22.05 26.8899C21.4 27.2399 20.9 27.4899 20 27.4899V29.4399C21.35 29.4399 22.2 29.0099 22.95 28.6399C23.6 28.3199 24.13 28.0399 25 28.0399C25.87 28.0399 26.4 28.2899 27.05 28.6399C27.8 29.0199 28.62 29.4399 30 29.4399C31.38 29.4399 32.2 29.0099 32.95 28.6399C33.6 28.3199 34.13 28.0399 35 28.0399C35.9 28.0399 36.4 28.2899 37.05 28.6399C37.8 29.0199 38.63 29.4399 40 29.4399V27.4899C39.1 27.4899 38.6 27.2399 37.95 26.8899C37.2 26.5099 36.35 26.0899 35 26.0899Z" fill="#747474"/>
</svg>
