<svg width="60" height="60" viewBox="0 0 60 60" fill="none" xmlns="http://www.w3.org/2000/svg">
<rect width="60" height="60" rx="2" fill="#313131"/>
<path d="M37.93 28.3501L34.33 30.0301L32 27.7001V26.3001L34.33 23.9701L37.93 25.6501C38.31 25.8301 38.75 25.6601 38.93 25.2901C39.11 24.9101 38.94 24.4701 38.57 24.2901L34.65 22.4601C34.27 22.2801 33.82 22.3601 33.52 22.6601L31.78 24.4001C31.6 24.1601 31.32 24.0001 31 24.0001C30.45 24.0001 30 24.4501 30 25.0001V26.0001H26.82C26.4 24.8401 25.3 24.0001 24 24.0001C22.34 24.0001 21 25.3401 21 27.0001C21 28.1001 21.6 29.0501 22.48 29.5801L25.08 38.0001H24C22.9 38.0001 22 38.9001 22 40.0001V41.0001H35V40.0001C35 38.9001 34.1 38.0001 33 38.0001H31.38L26.41 28.7701C26.58 28.5301 26.72 28.2801 26.82 28.0001H30V29.0001C30 29.5501 30.45 30.0001 31 30.0001C31.32 30.0001 31.6 29.8401 31.78 29.6001L33.52 31.3401C33.82 31.6401 34.27 31.7201 34.65 31.5401L38.57 29.7101C38.95 29.5301 39.11 29.0901 38.93 28.7101C38.75 28.3401 38.31 28.1701 37.93 28.3501ZM24 28.0001C23.45 28.0001 23 27.5501 23 27.0001C23 26.4501 23.45 26.0001 24 26.0001C24.55 26.0001 25 26.4501 25 27.0001C25 27.5501 24.55 28.0001 24 28.0001ZM29.11 38.0001H27.17L24.71 30.0001H24.81L29.11 38.0001Z" fill="#747474"/>
</svg>
