<svg width="38" height="38" viewBox="0 0 38 38" fill="none" xmlns="http://www.w3.org/2000/svg">
<path d="M31.5558 13.2208L25.8558 15.8808L22.1667 12.1916V9.97498L25.8558 6.28581L31.5558 8.94581C32.1575 9.23081 32.8542 8.96165 33.1392 8.37581C33.4242 7.77415 33.155 7.07748 32.5692 6.79248L26.3625 3.89498C25.7608 3.60998 25.0483 3.73665 24.5733 4.21165L21.8183 6.96665C21.5333 6.58665 21.09 6.33331 20.5833 6.33331C19.7125 6.33331 19 7.04581 19 7.91665V9.49998H13.965C13.3 7.66331 11.5583 6.33331 9.5 6.33331C6.87167 6.33331 4.75 8.45498 4.75 11.0833C4.75 12.825 5.7 14.3291 7.09333 15.1683L11.21 28.5H9.5C7.75833 28.5 6.33333 29.925 6.33333 31.6666V33.25H26.9167V31.6666C26.9167 29.925 25.4917 28.5 23.75 28.5H21.185L13.3158 13.8858C13.585 13.5058 13.8067 13.11 13.965 12.6666H19V14.25C19 15.1208 19.7125 15.8333 20.5833 15.8333C21.09 15.8333 21.5333 15.58 21.8183 15.2L24.5733 17.955C25.0483 18.43 25.7608 18.5566 26.3625 18.2716L32.5692 15.3741C33.1708 15.0891 33.4242 14.3925 33.1392 13.7908C32.8542 13.205 32.1575 12.9358 31.5558 13.2208ZM9.5 12.6666C8.62917 12.6666 7.91667 11.9541 7.91667 11.0833C7.91667 10.2125 8.62917 9.49998 9.5 9.49998C10.3708 9.49998 11.0833 10.2125 11.0833 11.0833C11.0833 11.9541 10.3708 12.6666 9.5 12.6666ZM17.5908 28.5H14.5192L10.6242 15.8333H10.7825L17.5908 28.5Z" fill="#747474"/>
</svg>
