<svg width="60" height="60" viewBox="0 0 60 60" fill="none" xmlns="http://www.w3.org/2000/svg">
<rect width="60" height="60" rx="2" fill="#313131"/>
<path d="M32.167 33L32.5666 25.0791C32.5666 23.9073 31.315 18.3 30.0589 18.3C28.8037 18.3 27.5518 23.9073 27.5518 25.0863L27.9562 33H32.167Z" fill="#747474"/>
<path d="M32.0726 35.1376L32.1518 34H27.9701L28.058 35.299L26.0996 36.0928V41.9236L27.8777 41.1718V39.0196L28.1771 39.0067L28.1903 39.1609C28.1909 40.0399 28.6472 41.8285 30.059 41.8285C31.4708 41.8285 31.9277 40.0399 31.9277 39.1738L31.9412 39.0106L32.2406 39.0235V40.9999L34.0178 41.7517V35.9209L32.0726 35.1376Z" fill="#747474"/>
</svg>
