<svg width="60" height="60" viewBox="0 0 60 60" fill="none" xmlns="http://www.w3.org/2000/svg">
<rect width="60" height="60" rx="2" fill="#313131"/>
<path d="M37.3067 31.9229H38.8443C38.8443 35.7438 35.7461 38.842 31.9252 38.842V37.3045C34.9004 37.3045 37.3067 34.8981 37.3067 31.9229ZM31.9252 34.2293V35.7669C34.0471 35.7669 35.7692 34.0448 35.7692 31.9229H34.2316C34.2316 33.1991 33.2014 34.2293 31.9252 34.2293ZM35.2002 21.6133L37.9218 24.3349C38.5214 24.9345 38.5214 25.9109 37.9218 26.5106L35.477 28.9553C34.8774 29.555 33.901 29.555 33.3013 28.9553L32.348 28.002L31.8022 28.5402L32.7555 29.4935C33.3551 30.0932 33.3551 31.0695 32.7555 31.6692L31.6715 32.7532C31.0718 33.3528 30.0954 33.3528 29.4958 32.7532L28.5425 31.7999L27.9966 32.3457L28.9499 33.299C29.5496 33.8987 29.5496 34.8751 28.9499 35.4747L26.5052 37.9195C25.9055 38.5192 24.9291 38.5192 24.3295 37.9195L21.6079 35.198C21.0083 34.5983 21.0083 33.6219 21.6079 33.0223L24.0527 30.5775C24.6524 29.9778 25.6287 29.9778 26.2284 30.5775L27.1817 31.5308L27.7276 30.985L26.7743 30.0393C26.1746 29.4397 26.1746 28.4633 26.7743 27.8637L27.8659 26.772C28.4656 26.1723 29.442 26.1723 30.0416 26.772L30.9949 27.7253L31.5408 27.1794L30.5798 26.2338C29.9801 25.6341 29.9801 24.6578 30.5798 24.0581L33.0246 21.6133C33.6319 21.006 34.6006 21.006 35.2002 21.6133ZM23.5146 33.299L22.6996 34.114L25.4212 36.8355L26.2361 36.0206L23.5146 33.299ZM25.1444 31.6692L24.3295 32.4841L27.051 35.2056L27.8659 34.3907L25.1444 31.6692ZM28.9499 27.8637L27.8659 28.9477L30.5875 31.6692L31.6715 30.5852L28.9499 27.8637ZM32.4864 24.3272L31.6715 25.1421L34.393 27.8637L35.2079 27.0487L32.4864 24.3272ZM34.1162 22.6973L33.3013 23.5123L36.0229 26.2338L36.8378 25.4189L34.1162 22.6973Z" fill="#747474"/>
</svg>
