<svg width="60" height="60" viewBox="0 0 60 60" fill="none" xmlns="http://www.w3.org/2000/svg">
<rect width="60" height="60" rx="2" fill="#313131"/>
<path d="M30.8234 21.3952C30.2615 21.957 31.3557 24.9734 33.2188 26.8365C34.8858 28.5035 37.3816 29.5787 38.312 29.3839C38.3217 29.3818 38.2975 29.3869 38.4705 29.2613C38.6436 29.1358 38.6679 29.0935 38.7165 29.0089L39.7628 27.1894C39.847 27.0428 39.8892 26.9696 39.9183 26.8907C39.9475 26.8118 39.9631 26.7287 39.9944 26.5626L40.9949 21.2507C41.0827 20.7841 41.1267 20.5509 41.0669 20.3298C41.0072 20.1088 40.8517 19.9294 40.5408 19.5707L40.4049 19.4138L40.2801 19.2977C39.9205 18.9629 39.7407 18.7955 39.5139 18.7289C39.2871 18.6623 39.0454 18.706 38.5618 18.7933L33.3195 19.7402C33.0781 19.7838 32.9574 19.8056 32.8465 19.8551C32.7357 19.9047 32.639 19.9801 32.4455 20.1309L30.8234 21.3952Z" fill="#747474"/>
<path d="M37.0633 30.2964C35.91 30.0893 34.0765 29.2613 32.2135 27.3983C30.3504 25.5352 29.759 23.7017 29.552 22.578C29.4928 22.3118 29.1971 22.2231 29.0197 22.4005L23.046 26.0379C22.2476 26.8068 21.9519 29.1726 23.046 31.4201L28.1029 28.6403C28.4874 28.3741 29.3745 28.9656 29.2267 29.4092L27.2453 35.8264C29.0492 37.0684 30.4687 37.5711 31.1489 36.9797L37.2408 30.8878C37.4478 30.6808 37.3591 30.3555 37.0633 30.2964Z" fill="#747474"/>
<path d="M22.6915 33.1058L27.778 29.7937C27.8667 29.7345 28.1328 29.9711 28.1033 30.0598L26.1219 35.1463L20.6806 38.0148C20.2075 38.2809 19.7343 37.6895 20.0596 37.2755L22.6915 33.1058Z" fill="#747474"/>
<path d="M22.0405 25.0917C22.3067 24.9438 23.4009 24.589 24.3767 24.0271L19.7043 24.2933C18.8172 24.2933 18.6397 24.9438 19.4086 25.417L21.4491 26.659C21.5378 25.8902 22.011 25.1508 22.0405 25.0917Z" fill="#747474"/>
<path d="M31.7693 38.2218C31.6805 38.2514 30.8525 38.6063 30.6455 38.5767L31.5918 41.0904C31.7397 41.5635 32.3903 41.5339 32.5086 41.0608L34.3125 35.5308C33.3366 36.5362 32.0058 38.1627 31.7693 38.2218Z" fill="#747474"/>
</svg>
