<svg width="60" height="60" viewBox="0 0 60 60" fill="none" xmlns="http://www.w3.org/2000/svg">
<rect width="60" height="60" rx="2" fill="#262626"/>
<path fill-rule="evenodd" clip-rule="evenodd" d="M36.75 26.78L35.34 28.19L34.28 27.14L29.13 32.29V34.41L23.83 39.71C23.44 40.1 22.81 40.1 22.42 39.71L20.3 37.59C19.91 37.2 19.91 36.57 20.3 36.18L25.6 30.88H27.72L28.57 30.03L24.44 25.9H23.03L20 22.87L22.83 20.04L25.85 23.06V24.48L29.98 28.61L32.87 25.72L31.81 24.66L33.22 23.25H30.39L29.68 22.54L33.22 19L33.92 19.71V22.53L35.33 21.12L38.87 24.66C40.04 25.83 40.04 27.73 38.87 28.9L36.75 26.78ZM23.12 37.58L27.36 33.34L26.65 32.63L22.41 36.87L23.12 37.58ZM34.37 30.8701L39.67 36.1701C40.06 36.5601 40.06 37.2001 39.67 37.5801L37.55 39.7001C37.16 40.0901 36.53 40.0901 36.14 39.7001L30.84 34.4001V33.4101L33.38 30.8701H34.37ZM32.6 33.3501L36.84 37.5901L37.55 36.8801L33.31 32.6401L32.6 33.3501Z" fill="#747474"/>
<path d="M27.36 33.34L23.12 37.58L22.41 36.87L26.65 32.63L27.36 33.34Z" fill="#747474"/>
<path d="M36.84 37.5901L32.6 33.3501L33.31 32.6401L37.55 36.8801L36.84 37.5901Z" fill="#747474"/>
</svg>
