<svg width="60" height="60" viewBox="0 0 60 60" fill="none" xmlns="http://www.w3.org/2000/svg">
<rect width="60" height="60" rx="2" fill="#313131"/>
<path d="M39 29.18V27.72C39 27.25 38.84 26.8 38.54 26.44L34.6 21.72C34.22 21.26 33.66 21 33.06 21H21C19.9 21 19 21.9 19 23V31C19 32.1 19.9 33 21 33H21.18C21.6 34.16 22.7 35 24 35C25.3 35 26.4 34.16 26.82 33H35.19C35.6 34.16 36.7 35 38.01 35C39.67 35 41.01 33.66 41.01 32C41 30.7 40.16 29.6 39 29.18ZM24 33C23.45 33 23 32.55 23 32C23 31.45 23.45 31 24 31C24.55 31 25 31.45 25 32C25 32.55 24.55 33 24 33ZM25 29.17C24.69 29.06 24.35 29 24 29C22.7 29 21.58 29.84 21.17 31H21V28H25V29.17ZM25 26H21V23H25V26ZM32 31H27V28H30V26H27V23H32V31ZM33 23.12L36.4 27H33V23.12ZM35.17 31H34V29H37V29.17C36.15 29.47 35.47 30.15 35.17 31ZM38 33C37.45 33 37 32.55 37 32C37 31.45 37.45 31 38 31C38.55 31 39 31.45 39 32C39 32.55 38.55 33 38 33Z" fill="#747474"/>
<path d="M25 26H21V23H25V26Z" fill="#747474"/>
<path d="M35.17 31H34V29H37V29.17C36.15 29.47 35.47 30.15 35.17 31Z" fill="#747474"/>
<path d="M25 29.17C24.69 29.06 24.35 29 24 29C22.7 29 21.58 29.84 21.17 31H21V28H25V29.17Z" fill="#747474"/>
<path d="M32 31H27V28H30V26H27V23H32V31Z" fill="#747474"/>
<path d="M25 38H29V36L35 39H31V41L25 38Z" fill="#747474"/>
</svg>
