<svg width="60" height="60" viewBox="0 0 60 60" fill="none" xmlns="http://www.w3.org/2000/svg">
<rect width="60" height="60" rx="2" fill="#262626"/>
<g clip-path="url(#clip0_101_1162)">
<path fill-rule="evenodd" clip-rule="evenodd" d="M34.5652 23.6369L37.4783 21.6676C38.1739 21.3176 38.1739 20.4424 37.4783 20.0924L34.5652 18.1232C33.8696 17.7732 33 18.2107 33 18.9109V19.92H26H25V20.88V24.8838C24.0787 25.1965 23.3639 25.9288 23.1051 26.8417C22.7631 26.7115 22.3903 26.64 22 26.64C20.3431 26.64 19 27.9294 19 29.52V32.4C19 33.9905 20.3431 35.28 22 35.28C22.3903 35.28 22.7631 35.2083 23.1051 35.0782C23.3639 35.9911 24.0787 36.7235 25 37.0362V41.04V42H26H40H41V41.04V37.2V36.24H40H34V34.32H41V32.4H33H32V33.36V37.2V38.16H33H39V40.08H27V37.0362C28.1652 36.6408 29 35.5739 29 34.32V27.6C29 26.346 28.1652 25.2792 27 24.8838V21.84H33V22.8491C33 23.5493 33.8696 23.9869 34.5652 23.6369Z" fill="#747474"/>
</g>
<defs>
<clipPath id="clip0_101_1162">
<rect width="24" height="24" fill="white" transform="translate(18 18)"/>
</clipPath>
</defs>
</svg>
