<svg width="60" height="60" viewBox="0 0 60 60" fill="none" xmlns="http://www.w3.org/2000/svg">
<rect width="60" height="60" rx="2" fill="#262626"/>
<path d="M22.5901 24.89C23.2901 24.18 23.9901 23.54 24.3001 23.67C24.8001 23.87 24.3001 24.7 24.0001 25.19C23.7501 25.61 21.1401 29.08 21.1401 31.5C21.1401 32.78 21.6201 33.84 22.4801 34.48C23.2301 35.04 24.2201 35.21 25.1201 34.94C26.1901 34.63 27.0701 33.54 28.1801 32.17C29.3901 30.68 31.0101 28.73 32.2601 28.73C33.8901 28.73 33.9101 29.74 34.0201 30.52C30.2401 31.16 28.6401 34.19 28.6401 35.89C28.6401 37.59 30.0801 38.98 31.8501 38.98C33.4801 38.98 36.1401 37.65 36.5401 32.88H39.0001V30.38H36.5301C36.3801 28.73 35.4401 26.18 32.5001 26.18C30.2501 26.18 28.3201 28.09 27.5601 29.02C26.9801 29.75 25.5001 31.5 25.2701 31.74C25.0201 32.04 24.5901 32.58 24.1601 32.58C23.7101 32.58 23.4401 31.75 23.8001 30.66C24.1501 29.57 25.2001 27.8 25.6501 27.14C26.4301 26 26.9501 25.22 26.9501 23.86C26.9501 21.69 25.3101 21 24.4401 21C23.1201 21 21.9701 22 21.7201 22.25C21.3601 22.61 21.0601 22.91 20.8401 23.18L22.5901 24.89ZM31.8801 36.55C31.5701 36.55 31.1401 36.29 31.1401 35.83C31.1401 35.23 31.8701 33.63 34.0101 33.07C33.7101 35.76 32.5801 36.55 31.8801 36.55Z" fill="#747474"/>
</svg>
